<?xml version="1.0" encoding="UTF-8" standalone="no"?>
<svg
   xmlns:dc="http://purl.org/dc/elements/1.1/"
   xmlns:cc="http://creativecommons.org/ns#"
   xmlns:rdf="http://www.w3.org/1999/02/22-rdf-syntax-ns#"
   xmlns:svg="http://www.w3.org/2000/svg"
   xmlns="http://www.w3.org/2000/svg"
   viewBox="0 0 833.33331 834.93335"
   height="834.93335"
   width="833.33331"
   xml:space="preserve"
   id="svg2"
   version="1.1"><metadata
     id="metadata8"><rdf:RDF><cc:Work
         rdf:about=""><dc:format>image/svg+xml</dc:format><dc:type
           rdf:resource="http://purl.org/dc/dcmitype/StillImage" /></cc:Work></rdf:RDF></metadata><defs
     id="defs6" /><g
     transform="matrix(1.3333333,0,0,-1.3333333,0,834.93333)"
     id="g10"><g
       transform="scale(0.1)"
       id="g12"><path
         id="path14"
         style="fill:#438fd4;fill-opacity:1;fill-rule:nonzero;stroke:none"
         d="M 6250,-0.0078125 H 0 V 6261.98 H 6250 V -0.0078125" /><path
         id="path16"
         style="fill:#ffffff;fill-opacity:1;fill-rule:nonzero;stroke:none"
         d="m 2840.73,2763.4 c 0,0 -82.75,-168.09 -37.86,-185.67 44.89,-17.58 80.24,67.58 80.24,67.58 0,0 -15.56,-167.27 41.21,-170.57 56.76,-3.31 50.99,144.1 50.99,144.1 0,0 41.43,-140.79 91.08,-138.7 49.65,2.1 15.33,172.94 15.33,172.94 0,0 69.48,-81.06 104.79,-65.86 35.33,15.19 -62.57,187.26 -62.57,187.26 l -283.21,-11.08" /><path
         id="path18"
         style="fill:#f8d1ad;fill-opacity:1;fill-rule:nonzero;stroke:none"
         d="m 2840.73,2763.4 c 0,0 -15.86,-32.22 -29.93,-69.92 60.66,-17.83 126.41,-27.32 195.09,-26.52 56.41,0.67 110.71,8.19 161.7,21.51 -19.89,44.21 -43.65,86.01 -43.65,86.01 l -283.21,-11.08" /><path
         id="path20"
         style="fill:#ffffff;fill-opacity:1;fill-rule:nonzero;stroke:none"
         d="m 2849.59,3567.91 c 0,0 -114.53,236.5 -33.26,261.34 72.23,22.08 110.68,-103.06 110.68,-103.06 0,0 60.47,265.02 156.17,246.61 95.71,-18.4 50.68,-261.34 50.68,-261.34 0,0 74.24,94.78 123.12,59.36 48.9,-35.43 -94.66,-247.08 -94.66,-247.08 l -312.73,44.17" /><path
         id="path22"
         style="fill:#f36437;fill-opacity:1;fill-rule:nonzero;stroke:none"
         d="m 2448.52,3168.6 c 6.47,237.19 253.86,422.85 552.53,414.69 298.69,-8.17 535.56,-207.06 529.09,-444.25 -6.49,-237.19 -253.87,-422.85 -552.55,-414.69 -298.68,8.17 -535.56,207.06 -529.07,444.25" /><path
         id="path24"
         style="fill:#f8d1ad;fill-opacity:1;fill-rule:nonzero;stroke:none"
         d="m 2648.02,2537.5 c -43.39,2.51 -84.24,27.2 -110.32,69.47 -41.02,66.49 -40.89,172.65 51.89,259.87 119.36,112.21 37.43,264.41 33.89,270.84 -8.83,15.98 -3.09,36.13 12.88,45 15.93,8.9 36.06,3.2 44.97,-12.73 39.04,-69.76 79.6,-232.97 -46.36,-351.38 -65.57,-61.64 -67.76,-133.23 -40.88,-176.82 15.76,-25.54 45.93,-47.93 83.55,-34.16 17.18,6.27 36.22,-2.56 42.5,-19.73 6.28,-17.17 -2.54,-36.2 -19.73,-42.49 -17.34,-6.35 -35.08,-8.88 -52.39,-7.87" /><path
         id="path26"
         style="fill:#f03a1f;fill-opacity:1;fill-rule:nonzero;stroke:none"
         d="m 3530.14,3139.04 c 2,73.48 -19.39,143.25 -58.68,204.85 -94.85,75.12 -224.03,123.2 -367.6,127.12 -298.68,8.16 -546.07,-177.5 -552.55,-414.69 -2,-73.47 19.38,-143.25 58.68,-204.84 94.84,-75.13 224.02,-123.2 367.6,-127.13 298.68,-8.16 546.06,177.5 552.55,414.69" /><path
         id="path28"
         style="fill:#ffffff;fill-opacity:1;fill-rule:nonzero;stroke:none"
         d="m 3710.64,2681.3 82.9,82.9 c 27.74,27.73 34.61,70.09 17.08,105.17 l -4.29,8.56 c -19.04,38.08 -9.16,84.26 23.78,111.24 l 6.24,5.11 c 36.05,29.52 44.02,81.49 18.46,120.46 v 0 c -27.46,41.85 -16,98.02 25.66,125.78 l 0.19,0.13 c 38.96,25.96 51.9,77.23 29.93,118.57 l -52.13,98.07 c 0,0 -281.94,-173.67 -281.94,-379.11 0,-205.44 134.12,-396.88 134.12,-396.88" /><path
         id="path30"
         style="fill:#f8d1ad;fill-opacity:1;fill-rule:nonzero;stroke:none"
         d="m 3806.46,3217.76 c 0,0 -100.76,2.62 -172.53,-28.36 l -22.08,-57.37 c 0,0 116.86,65.35 194.61,85.73" /><path
         id="path32"
         style="fill:#f8d1ad;fill-opacity:1;fill-rule:nonzero;stroke:none"
         d="m 3752.84,2915.39 c 0,0 -99.55,15.83 -164.46,59.4 l -11.24,60.43 c 0,0 102.98,-85.58 175.7,-119.83" /><path
         id="path34"
         style="fill:#ffffff;fill-opacity:1;fill-rule:nonzero;stroke:none"
         d="m 2638.06,3244 c 0,98.46 79.81,178.27 178.27,178.27 98.46,0 178.27,-79.81 178.27,-178.27 0,-98.46 -79.81,-178.28 -178.27,-178.28 -98.46,0 -178.27,79.82 -178.27,178.28" /><path
         id="path36"
         style="fill:#6b1517;fill-opacity:1;fill-rule:nonzero;stroke:none"
         d="m 2722.69,3244 c 0,51.71 41.92,93.64 93.64,93.64 51.71,0 93.63,-41.93 93.63,-93.64 0,-51.72 -41.92,-93.65 -93.64,-93.65 -51.71,0 -93.63,41.93 -93.63,93.65" /><path
         id="path38"
         style="fill:#a91c24;fill-opacity:1;fill-rule:nonzero;stroke:none"
         d="m 3133.67,3170.15 c 3.36,122.28 -40.35,238.56 -123.04,327.41 -30.38,32.63 -64.74,60 -101.94,81.9 -33.48,-3.64 -65.98,-9.65 -97.21,-17.97 59.12,-20.7 112.9,-55.56 157.11,-103.07 72.38,-77.74 110.63,-179.57 107.69,-286.7 -2.93,-107.14 -46.68,-206.72 -123.18,-280.4 -64.52,-62.11 -146.04,-99.15 -232.92,-107.58 31.99,-14.93 66.08,-27.3 101.81,-36.88 63.04,20.8 121.39,55.39 170.94,103.1 87.42,84.19 137.41,197.9 140.74,320.19" /><path
         id="path40"
         style="fill:#f03a1f;fill-opacity:1;fill-rule:nonzero;stroke:none"
         d="m 3871.3,3436.93 c 30.08,26.52 -2.03,74.21 -37.81,56.11 -137.71,-69.64 -299.07,-192.48 -339.61,-395.25 -37.64,-188.15 60.86,-341.13 166.87,-446.11 28.77,-28.49 74.49,8.73 52.52,42.73 -72.32,111.95 -135.87,253.24 -106.81,376.71 31.9,135.6 156.56,270.32 264.84,365.81" /><path
         id="path42"
         style="fill:#ffffff;fill-opacity:1;fill-rule:nonzero;stroke:none"
         d="m 2621.86,2414.59 c -43.4,2.51 -84.25,27.21 -110.32,69.47 -41.02,66.5 -40.91,172.65 51.88,259.88 119.36,112.2 37.43,264.41 33.88,270.83 -8.82,15.98 -3.07,36.14 12.89,45 15.93,8.91 36.06,3.2 44.97,-12.72 39.05,-69.77 79.61,-232.98 -46.36,-351.39 -65.56,-61.64 -67.76,-133.22 -40.88,-176.81 15.76,-25.54 45.93,-47.93 83.55,-34.17 17.18,6.28 36.23,-2.56 42.49,-19.72 6.29,-17.17 -2.53,-36.2 -19.72,-42.5 -17.35,-6.35 -35.08,-8.87 -52.38,-7.87" /><path
         id="path44"
         style="fill:#a91c24;fill-opacity:1;fill-rule:nonzero;stroke:none"
         d="m 3342.65,3475.63 c -31.64,22.02 -66.55,41.16 -104,57.02 75.43,-90.06 122.21,-233.17 117.85,-392.81 -4.18,-152.89 -54.43,-287.77 -129.14,-374.23 37.27,14.16 72.13,31.64 104.01,52.01 48.72,88.84 79.23,199.76 82.53,320.64 3.45,126.56 -23.5,243.82 -71.25,337.37" /><path
         id="path46"
         style="fill:#a91c24;fill-opacity:1;fill-rule:nonzero;stroke:none"
         d="m 3103.14,3488.58 -71.37,-24.63 10.81,-31.32 71.93,24.82 67.95,-23.12 -19.25,-65.75 -77.14,-37.45 14.48,-29.8 74.24,36.03 71.74,-58.36 20.9,25.7 -71.39,58.08 27.11,92.69 -84.4,28.72 31.92,56.3 -28.84,24.06 c -21.72,5.28 -44.03,9.49 -66.81,12.6 l 53.18,-44.38 -25.06,-44.19" /><path
         id="path48"
         style="fill:#a91c24;fill-opacity:1;fill-rule:nonzero;stroke:none"
         d="m 3122.39,2776.99 11.7,81.86 -32.8,4.69 -7.63,-53.42 h -64.73 l -56.55,52.21 -22.47,-24.35 56.47,-52.12 4.22,-61.54 c 11.12,0.23 22.14,0.77 33.09,1.53 l -3.5,51.14 h 82.2" /><path
         id="path50"
         style="fill:#f03a1f;fill-opacity:1;fill-rule:nonzero;stroke:none"
         d="m 3206.92,2831.64 c 11.81,-33.67 -30.21,-60.12 -54.79,-34.25 -51.28,53.97 -163.02,214.75 -152.47,293.21 16.72,124.51 503.53,441.47 548.28,382.77 44.75,-58.7 -337.46,-290.6 -409.72,-353.13 -46.71,-40.44 44.99,-220.92 68.7,-288.6" /><path
         id="path52"
         style="fill:#ffffff;fill-opacity:1;fill-rule:nonzero;stroke:none"
         d="m 3499.85,3389.5 c 0,0 -13.07,-333.99 -294.59,-553.15 0,0 -121.54,220.77 -112.34,265.94 9.2,45.17 406.93,287.21 406.93,287.21" /><path
         id="path54"
         style="fill:#ffffff;fill-opacity:1;fill-rule:nonzero;stroke:none"
         d="m 2536.82,3265.94 -65.66,65.66 c -26.19,26.19 -69.2,25.35 -94.3,-2.54 -23.56,-26.15 -19.89,-67.09 5,-91.97 l 52.81,-52.82 c 1.45,-1.45 2.98,-2.98 4.54,-4.55 -1.56,-1.56 -3.09,-3.1 -4.54,-4.55 l -52.81,-52.82 c -24.89,-24.88 -28.56,-65.82 -5,-91.97 25.1,-27.89 68.11,-28.73 94.3,-2.54 l 65.66,65.66 c 22.87,22.86 35.71,53.88 35.71,86.22 v 0 c 0,32.34 -12.84,63.36 -35.71,86.22" /><path
         id="path56"
         style="fill:#a91c24;fill-opacity:1;fill-rule:nonzero;stroke:none"
         d="m 3365.12,3414.22 c -168.27,-69.35 -358.85,-196.74 -396.93,-308.42 -44.69,-131.07 183.94,-308.41 183.94,-308.41 -51.28,53.97 -163.01,214.75 -152.47,293.21 10.58,78.82 209.5,234.67 365.46,323.62" /><path
         id="path58"
         style="fill:#8d1b21;fill-opacity:1;fill-rule:nonzero;stroke:none"
         d="m 2762.03,3279 c 0,19.82 24.31,35.9 54.3,35.9 29.98,0 54.29,-16.08 54.29,-35.9 0,-19.83 -24.31,-35.9 -54.3,-35.9 -29.98,-0.01 -54.29,16.07 -54.29,35.9" /><path
         id="path60"
         style="fill:#f8d1ad;fill-opacity:1;fill-rule:nonzero;stroke:none"
         d="m 2422.01,3105.17 32.22,32.23 c 11.23,11.22 17.54,26.44 17.54,42.32 v 0 c 0,15.88 -6.31,31.1 -17.54,42.32 l -32.22,32.23 c -12.86,12.86 -33.97,12.45 -46.3,-1.24 -1.3,-1.45 -1.82,-3.23 -2.79,-4.83 2.6,-3.94 5.53,-7.7 8.94,-11.11 l 52.81,-52.82 c 1.45,-1.45 2.98,-2.98 4.54,-4.55 -1.56,-1.56 -3.09,-3.1 -4.54,-4.55 l -52.81,-52.82 c -3.41,-3.41 -6.34,-7.17 -8.94,-11.11 0.97,-1.6 1.49,-3.38 2.79,-4.83 12.33,-13.68 33.44,-14.1 46.3,-1.24" /><path
         id="path62"
         style="fill:#f8d1ad;fill-opacity:1;fill-rule:nonzero;stroke:none"
         d="m 3205.26,2836.35 c 0,0 -121.54,220.77 -112.34,265.94 9.2,45.17 406.93,287.21 406.93,287.21 0,0 -372.05,-266.99 -374.12,-293.67 -2.06,-26.68 79.53,-259.48 79.53,-259.48" /><path
         id="path64"
         style="fill:#f8d1ad;fill-opacity:1;fill-rule:nonzero;stroke:none"
         d="m 3133.92,3053.75 c 0,0 129.84,-59.12 166.17,-81.23 0,0 -106.45,15.61 -173.79,45.01 l 7.62,36.22" /><path
         id="path66"
         style="fill:#f8d1ad;fill-opacity:1;fill-rule:nonzero;stroke:none"
         d="m 3173.5,3152.84 c 0,0 165.22,-28.56 207.08,-36.1 0,0 -172.26,-5.12 -245.68,-1.96 l 38.6,38.06" /><path
         id="path68"
         style="fill:#f8d1ad;fill-opacity:1;fill-rule:nonzero;stroke:none"
         d="m 3282.87,3238.46 148.16,23.93 c 0,0 -98.14,-46.01 -203.67,-70.86 l 55.51,46.93" /><path
         id="path70"
         style="fill:#ffffff;fill-opacity:1;fill-rule:nonzero;stroke:none"
         d="m 5949.76,5831.44 c 0,0 -82.76,-168.08 -37.88,-185.66 44.9,-17.58 80.25,67.58 80.25,67.58 0,0 -15.56,-167.27 41.2,-170.58 56.77,-3.3 51.01,144.11 51.01,144.11 0,0 41.41,-140.8 91.06,-138.7 49.65,2.09 15.34,172.94 15.34,172.94 0,0 69.47,-81.06 104.8,-65.87 35.32,15.2 -62.58,187.26 -62.58,187.26 l -283.2,-11.08" /><path
         id="path72"
         style="fill:#f8d1ad;fill-opacity:1;fill-rule:nonzero;stroke:none"
         d="m 5949.76,5831.44 c 0,0 -15.87,-32.21 -29.94,-69.92 60.67,-17.82 126.41,-27.32 195.08,-26.51 56.42,0.67 110.73,8.19 161.7,21.51 -19.88,44.2 -43.64,86 -43.64,86 l -283.2,-11.08" /><path
         id="path74"
         style="fill:#f36437;fill-opacity:1;fill-rule:nonzero;stroke:none"
         d="m 5557.53,6236.65 c 6.48,237.19 253.87,422.84 552.55,414.69 298.68,-8.17 535.55,-207.07 529.07,-444.25 -6.48,-237.19 -253.87,-422.86 -552.55,-414.69 -298.68,8.16 -535.56,207.06 -529.07,444.25" /><path
         id="path76"
         style="fill:#f8d1ad;fill-opacity:1;fill-rule:nonzero;stroke:none"
         d="m 5757.04,5605.54 c -43.4,2.51 -84.25,27.21 -110.31,69.47 -41.03,66.5 -40.91,172.65 51.88,259.88 119.36,112.21 37.43,264.41 33.88,270.83 -8.83,15.99 -3.08,36.14 12.88,45 15.94,8.91 36.07,3.21 44.97,-12.72 39.05,-69.77 79.61,-232.97 -46.36,-351.39 -65.55,-61.64 -67.76,-133.22 -40.87,-176.81 15.76,-25.54 45.92,-47.93 83.55,-34.17 17.18,6.28 36.22,-2.56 42.49,-19.72 6.29,-17.17 -2.54,-36.2 -19.72,-42.5 -17.35,-6.35 -35.08,-8.87 -52.39,-7.87" /><path
         id="path78"
         style="fill:#f03a1f;fill-opacity:1;fill-rule:nonzero;stroke:none"
         d="m 6639.15,6207.09 c 2.01,73.47 -19.37,143.25 -58.68,204.84 -94.84,75.13 -224.02,123.2 -367.59,127.12 -298.68,8.17 -546.06,-177.5 -552.55,-414.68 -2.01,-73.48 19.38,-143.25 58.67,-204.85 94.85,-75.13 224.04,-123.2 367.6,-127.12 298.68,-8.17 546.07,177.5 552.55,414.69" /><path
         id="path80"
         style="fill:#ffffff;fill-opacity:1;fill-rule:nonzero;stroke:none"
         d="m 5747.07,6312.04 c 0,98.46 79.81,178.28 178.27,178.28 98.46,0 178.27,-79.82 178.27,-178.28 0,-98.45 -79.81,-178.27 -178.27,-178.27 -98.46,0 -178.27,79.82 -178.27,178.27" /><path
         id="path82"
         style="fill:#6b1517;fill-opacity:1;fill-rule:nonzero;stroke:none"
         d="m 5831.7,6312.04 c 0,51.72 41.93,93.64 93.64,93.64 51.72,0 93.64,-41.92 93.64,-93.64 0,-51.72 -41.92,-93.64 -93.64,-93.64 -51.72,0 -93.64,41.92 -93.64,93.64" /><path
         id="path84"
         style="fill:#a91c24;fill-opacity:1;fill-rule:nonzero;stroke:none"
         d="m 6242.7,6238.19 c 3.34,122.29 -40.36,238.57 -123.06,327.41 -30.37,32.63 -64.73,60.01 -101.93,81.91 -33.47,-3.64 -65.99,-9.66 -97.2,-17.98 59.1,-20.69 112.89,-55.56 157.11,-103.06 72.37,-77.74 110.61,-179.57 107.68,-286.7 -2.93,-107.15 -46.68,-206.73 -123.19,-280.4 -64.5,-62.12 -146.03,-99.16 -232.91,-107.58 31.99,-14.93 66.08,-27.31 101.81,-36.88 63.03,20.8 121.38,55.38 170.93,103.09 87.43,84.19 137.42,197.91 140.76,320.19" /><path
         id="path86"
         style="fill:#ffffff;fill-opacity:1;fill-rule:nonzero;stroke:none"
         d="m 5730.87,5482.63 c -43.4,2.52 -84.24,27.21 -110.31,69.48 -41.03,66.5 -40.9,172.65 51.88,259.87 119.36,112.21 37.43,264.41 33.88,270.84 -8.83,15.98 -3.08,36.14 12.88,45 15.95,8.91 36.07,3.2 44.98,-12.73 39.04,-69.76 79.6,-232.97 -46.36,-351.38 -65.56,-61.64 -67.77,-133.23 -40.88,-176.82 15.76,-25.53 45.93,-47.93 83.55,-34.16 17.18,6.27 36.22,-2.57 42.5,-19.73 6.28,-17.17 -2.55,-36.2 -19.73,-42.49 -17.35,-6.35 -35.08,-8.88 -52.39,-7.88" /><path
         id="path88"
         style="fill:#a91c24;fill-opacity:1;fill-rule:nonzero;stroke:none"
         d="m 6231.42,5845.04 11.7,81.86 -32.81,4.68 -7.62,-53.41 h -64.74 l -56.54,52.2 -22.48,-24.35 56.46,-52.12 4.22,-61.53 c 11.12,0.22 22.15,0.77 33.1,1.52 l -3.5,51.15 h 82.21" /><path
         id="path90"
         style="fill:#f03a1f;fill-opacity:1;fill-rule:nonzero;stroke:none"
         d="m 6315.95,5899.69 c 11.79,-33.67 -30.23,-60.12 -54.8,-34.26 -51.29,53.98 -163.02,214.75 -152.48,293.21 16.73,124.52 503.55,441.47 548.29,382.77 44.75,-58.7 -337.46,-290.59 -409.71,-353.13 -46.72,-40.44 44.98,-220.91 68.7,-288.59" /><path
         id="path92"
         style="fill:#ffffff;fill-opacity:1;fill-rule:nonzero;stroke:none"
         d="m 6608.87,6457.55 c 0,0 -13.08,-333.99 -294.59,-553.16 0,0 -121.54,220.77 -112.34,265.94 9.2,45.17 406.93,287.22 406.93,287.22" /><path
         id="path94"
         style="fill:#ffffff;fill-opacity:1;fill-rule:nonzero;stroke:none"
         d="m 5645.84,6333.98 -65.65,65.66 c -26.21,26.2 -69.2,25.36 -94.32,-2.53 -23.56,-26.15 -19.88,-67.09 5,-91.98 l 52.81,-52.81 c 1.46,-1.45 2.99,-2.99 4.54,-4.55 -1.55,-1.57 -3.08,-3.1 -4.54,-4.56 l -52.81,-52.81 c -24.88,-24.89 -28.56,-65.83 -5,-91.97 25.12,-27.89 68.11,-28.74 94.32,-2.54 l 65.65,65.65 c 22.86,22.87 35.71,53.89 35.71,86.23 v 0 c 0,32.34 -12.85,63.35 -35.71,86.21" /><path
         id="path96"
         style="fill:#a91c24;fill-opacity:1;fill-rule:nonzero;stroke:none"
         d="m 6474.14,6482.26 c -168.28,-69.34 -358.86,-196.74 -396.93,-308.41 -44.69,-131.08 183.94,-308.42 183.94,-308.42 -51.28,53.98 -163.02,214.75 -152.48,293.21 10.59,78.83 209.51,234.68 365.47,323.62" /><path
         id="path98"
         style="fill:#f8d1ad;fill-opacity:1;fill-rule:nonzero;stroke:none"
         d="m 5531.03,6173.21 32.22,32.23 c 11.22,11.23 17.53,26.45 17.53,42.33 v 0 c 0,15.87 -6.31,31.09 -17.53,42.32 l -32.22,32.23 c -12.87,12.86 -33.97,12.44 -46.3,-1.25 -1.3,-1.44 -1.83,-3.23 -2.79,-4.83 2.6,-3.94 5.52,-7.69 8.93,-11.11 l 52.81,-52.81 c 1.46,-1.45 2.99,-2.99 4.54,-4.55 -1.55,-1.57 -3.08,-3.1 -4.54,-4.56 l -52.81,-52.81 c -3.41,-3.42 -6.33,-7.18 -8.93,-11.11 0.96,-1.6 1.49,-3.39 2.79,-4.83 12.33,-13.69 33.43,-14.1 46.3,-1.25" /><path
         id="path100"
         style="fill:#f8d1ad;fill-opacity:1;fill-rule:nonzero;stroke:none"
         d="m 6314.28,5904.39 c 0,0 -121.54,220.77 -112.34,265.94 9.2,45.17 406.93,287.22 406.93,287.22 0,0 -372.05,-267 -374.11,-293.67 -2.06,-26.68 79.52,-259.49 79.52,-259.49" /><path
         id="path102"
         style="fill:#f8d1ad;fill-opacity:1;fill-rule:nonzero;stroke:none"
         d="m 6242.94,6121.79 c 0,0 129.84,-59.12 166.16,-81.22 0,0 -106.44,15.6 -173.79,45 l 7.63,36.22" /><path
         id="path104"
         style="fill:#f8d1ad;fill-opacity:1;fill-rule:nonzero;stroke:none"
         d="m 6282.52,6220.89 c 0,0 165.22,-28.57 207.07,-36.1 0,0 -172.26,-5.12 -245.66,-1.97 l 38.59,38.07" /><path
         id="path106"
         style="fill:#ffffff;fill-opacity:1;fill-rule:nonzero;stroke:none"
         d="m 5958.61,373.609 c 0,0 -114.53,236.5 -33.27,261.34 72.24,22.09 110.7,-103.051 110.7,-103.051 0,0 60.46,265.024 156.17,246.614 95.69,-18.403 50.66,-261.34 50.66,-261.34 0,0 74.25,94.769 123.14,59.348 48.88,-35.43 -94.67,-247.079 -94.67,-247.079 l -312.73,44.168" /><path
         id="path108"
         style="fill:#f36437;fill-opacity:1;fill-rule:nonzero;stroke:none"
         d="M 5557.53,-25.6914 C 5564.01,211.5 5811.4,397.16 6110.08,389 c 298.68,-8.168 535.55,-207.07 529.07,-444.25 -6.48,-237.191 -253.87,-422.852 -552.55,-414.691 -298.68,8.16 -535.56,207.062 -529.07,444.2496" /><path
         id="path110"
         style="fill:#f03a1f;fill-opacity:1;fill-rule:nonzero;stroke:none"
         d="m 6639.15,-55.25 c 2.01,73.4688 -19.37,143.25 -58.68,204.84 -94.84,75.129 -224.02,123.199 -367.59,127.129 -298.68,8.152 -546.06,-177.5002 -552.55,-414.688 -2.01,-73.472 19.38,-143.25 58.67,-204.84 94.85,-75.14 224.04,-123.203 367.6,-127.132 298.68,-8.161 546.07,177.5 552.55,414.691" /><path
         id="path112"
         style="fill:#ffffff;fill-opacity:1;fill-rule:nonzero;stroke:none"
         d="m 5747.07,49.7109 c 0,98.4611 79.81,178.2691 178.27,178.2691 98.46,0 178.27,-79.808 178.27,-178.2691 0,-98.4609 -79.81,-178.2699 -178.27,-178.2699 -98.46,0 -178.27,79.809 -178.27,178.2699" /><path
         id="path114"
         style="fill:#6b1517;fill-opacity:1;fill-rule:nonzero;stroke:none"
         d="m 5831.7,49.6992 c 0,51.7188 41.93,93.6408 93.64,93.6528 51.72,0 93.64,-41.934 93.64,-93.6411 0,-51.71871 -41.92,-93.6406 -93.64,-93.6406 -51.72,0 -93.64,41.92189 -93.64,93.6289" /><path
         id="path116"
         style="fill:#a91c24;fill-opacity:1;fill-rule:nonzero;stroke:none"
         d="m 6242.7,-24.1484 c 3.34,122.289 -40.36,238.5704 -123.06,327.4104 -30.37,32.629 -64.73,60.008 -101.93,81.906 -33.47,-3.637 -65.99,-9.656 -97.2,-17.977 59.1,-20.691 112.89,-55.562 157.11,-103.062 72.37,-77.738 110.61,-179.5704 107.68,-286.7071 -2.93,-107.1409 -46.68,-206.7229 -123.19,-280.3909 -64.5,-62.121 -146.03,-99.152 -232.91,-107.59 31.99,-14.921 66.08,-27.289 101.81,-36.871 63.03,20.801 121.38,55.391 170.93,103.102 87.43,84.18 137.42,197.898 140.76,320.1796" /><path
         id="path118"
         style="fill:#a91c24;fill-opacity:1;fill-rule:nonzero;stroke:none"
         d="m 6212.17,294.281 -71.38,-24.629 10.8,-31.312 71.95,24.82 67.93,-23.121 -19.24,-65.758 -77.13,-37.441 14.46,-29.809 74.24,36.039 71.76,-58.3708 20.9,25.7108 -71.41,58.078 27.13,92.684 -84.41,28.719 31.92,56.3 -28.84,24.071 c -21.73,5.277 -44.03,9.488 -66.82,12.597 l 53.2,-44.379 -25.06,-44.199" /><path
         id="path120"
         style="fill:#f03a1f;fill-opacity:1;fill-rule:nonzero;stroke:none"
         d="m 6315.95,-362.66 c 11.79,-33.66 -30.23,-60.11 -54.8,-34.238 -51.29,53.968 -163.02,214.738 -152.48,293.199 16.73,124.5076 503.55,441.469 548.29,382.769 44.75,-58.691 -337.46,-290.5895 -409.71,-353.1286 -46.72,-40.4294 44.98,-220.9104 68.7,-288.6014" /><path
         id="path122"
         style="fill:#ffffff;fill-opacity:1;fill-rule:nonzero;stroke:none"
         d="m 6608.87,195.219 c 0,0 -13.08,-334 -294.59,-553.168 0,0 -121.54,220.769 -112.34,265.949 9.2,45.1719 406.93,287.219 406.93,287.219" /><path
         id="path124"
         style="fill:#ffffff;fill-opacity:1;fill-rule:nonzero;stroke:none"
         d="m 5645.84,71.6484 -65.65,65.6606 c -26.21,26.203 -69.2,25.351 -94.32,-2.539 -23.56,-26.149 -19.88,-67.0903 5,-91.9809 l 52.81,-52.8086 c 1.46,-1.4493 2.99,-2.9922 4.54,-4.5508 -1.55,-1.5586 -3.08,-3.1016 -4.54,-4.5586 l -52.81,-52.8125 c -24.88,-24.8789 -28.56,-65.8206 -5,-91.9686 25.12,-27.899 68.11,-28.738 94.32,-2.531 l 65.65,65.652 c 22.86,22.8593 35.71,53.8788 35.71,86.2187 v 0 c 0,32.332 -12.85,63.3516 -35.71,86.2187" /><path
         id="path126"
         style="fill:#a91c24;fill-opacity:1;fill-rule:nonzero;stroke:none"
         d="M 6474.14,219.922 C 6305.86,150.578 6115.28,23.1797 6077.21,-88.4883 c -44.69,-131.0707 183.94,-308.4097 183.94,-308.4097 -51.28,53.968 -163.02,214.738 -152.48,293.199 10.59,78.8279 209.51,234.679 365.47,323.621" /><path
         id="path128"
         style="fill:#8d1b21;fill-opacity:1;fill-rule:nonzero;stroke:none"
         d="m 5871.04,84.6992 c 0,19.8318 24.32,35.9098 54.3,35.9098 29.99,0 54.3,-16.078 54.3,-35.8981 0,-19.8398 -24.32,-35.9101 -54.3,-35.9101 -29.99,0 -54.3,16.0703 -54.3,35.8984" /><path
         id="path130"
         style="fill:#f8d1ad;fill-opacity:1;fill-rule:nonzero;stroke:none"
         d="m 5531.03,-89.1211 32.22,32.2305 c 11.22,11.2187 17.53,26.4414 17.53,42.3203 v 0 c 0,15.87108 -6.31,31.0898 -17.53,42.332 l -32.22,32.2188 c -12.87,12.8515 -33.97,12.4414 -46.3,-1.25 -1.3,-1.4297 -1.83,-3.2188 -2.79,-4.8203 2.6,-3.9414 5.52,-7.6993 8.93,-11.1211 l 52.81,-52.8086 c 1.46,-1.4493 2.99,-2.9922 4.54,-4.5508 -1.55,-1.5586 -3.08,-3.1016 -4.54,-4.5586 l -52.81,-52.8125 c -3.41,-3.4063 -6.33,-7.168 -8.93,-11.1094 0.96,-1.5976 1.49,-3.3789 2.79,-4.8281 12.33,-13.6911 33.43,-14.1011 46.3,-1.2422" /><path
         id="path132"
         style="fill:#f8d1ad;fill-opacity:1;fill-rule:nonzero;stroke:none"
         d="m 6314.28,-357.949 c 0,0 -121.54,220.769 -112.34,265.949 9.2,45.1719 406.93,287.219 406.93,287.219 0,0 -372.05,-267.0081 -374.11,-293.6878 -2.06,-26.6792 79.52,-259.4802 79.52,-259.4802" /><path
         id="path134"
         style="fill:#ffffff;fill-opacity:1;fill-rule:nonzero;stroke:none"
         d="m -300.43,5831.44 c 0,0 -82.754,-168.08 -37.859,-185.66 44.891,-17.58 80.238,67.58 80.238,67.58 0,0 -15.562,-167.27 41.203,-170.58 56.766,-3.31 50.996,144.11 50.996,144.11 0,0 41.422,-140.8 91.0707,-138.7 49.6485,2.09 15.336,172.94 15.336,172.94 0,0 69.4805,-81.06 104.8008,-65.87 35.3164,15.2 -62.5782,187.26 -62.5782,187.26 L -300.43,5831.44" /><path
         id="path136"
         style="fill:#f8d1ad;fill-opacity:1;fill-rule:nonzero;stroke:none"
         d="m -300.43,5831.44 c 0,0 -15.859,-32.21 -29.929,-69.92 60.664,-17.82 126.406,-27.32 195.086,-26.51 56.4097,0.67 110.7183,8.19 161.6988,21.51 -19.89455,44.2 -43.6485,86 -43.6485,86 L -300.43,5831.44" /><path
         id="path138"
         style="fill:#f36437;fill-opacity:1;fill-rule:nonzero;stroke:none"
         d="m -692.652,6236.65 c 6.484,237.19 253.867,422.84 552.55,414.69 298.68,-8.17 535.555,-207.07 529.071,-444.25 -6.485,-237.19 -253.867,-422.86 -552.547,-414.69 -298.684,8.16 -535.559,207.06 -529.074,444.25" /><path
         id="path140"
         style="fill:#f03a1f;fill-opacity:1;fill-rule:nonzero;stroke:none"
         d="m 388.969,6207.09 c 2.008,73.47 -19.379,143.25 -58.676,204.84 -94.844,75.13 -224.027,123.2 -367.5938,127.12 -298.6792,8.17 -546.0662,-177.5 -552.5472,-414.68 -2.011,-73.48 19.379,-143.25 58.676,-204.85 94.844,-75.13 224.027,-123.2 367.594,-127.12 298.68,-8.17 546.066,177.5 552.547,414.69" /><path
         id="path142"
         style="fill:#ffffff;fill-opacity:1;fill-rule:nonzero;stroke:none"
         d="m 569.488,5749.35 82.899,82.9 c 27.726,27.73 34.601,70.09 17.066,105.16 l -4.281,8.56 c -19.039,38.08 -9.172,84.27 23.769,111.24 l 6.243,5.11 c 36.054,29.52 44.027,81.5 18.464,120.46 v 0 c -27.453,41.86 -15.996,98.02 25.653,125.78 l 0.195,0.13 c 38.961,25.97 51.899,77.24 29.93,118.57 l -52.129,98.08 c 0,0 -281.938,-173.68 -281.938,-379.12 0,-205.44 134.129,-396.87 134.129,-396.87" /><path
         id="path144"
         style="fill:#f8d1ad;fill-opacity:1;fill-rule:nonzero;stroke:none"
         d="m 665.305,6285.81 c 0,0 -100.762,2.62 -172.539,-28.37 l -22.086,-57.36 c 0,0 116.871,65.34 194.625,85.73" /><path
         id="path146"
         style="fill:#f8d1ad;fill-opacity:1;fill-rule:nonzero;stroke:none"
         d="m 611.676,5983.43 c 0,0 -99.547,15.84 -164.457,59.4 l -11.242,60.43 c 0,0 102.972,-85.58 175.699,-119.83" /><path
         id="path148"
         style="fill:#f03a1f;fill-opacity:1;fill-rule:nonzero;stroke:none"
         d="m 730.141,6504.98 c 30.07,26.52 -2.039,74.21 -37.817,56.11 -137.711,-69.65 -299.058,-192.48 -339.613,-395.25 -37.633,-188.16 60.863,-341.14 166.879,-446.12 28.769,-28.48 74.488,8.73 52.519,42.74 -72.324,111.94 -135.871,253.23 -106.816,376.71 31.902,135.59 156.562,270.32 264.848,365.81" /><path
         id="path150"
         style="fill:#a91c24;fill-opacity:1;fill-rule:nonzero;stroke:none"
         d="m 201.484,6543.67 c -31.64,22.03 -66.543,41.17 -103.9957,57.03 C 172.922,6510.64 219.695,6367.53 215.348,6207.88 211.16,6055 160.902,5920.12 86.1953,5833.65 c 37.2737,14.16 72.1407,31.65 104.0077,52.02 48.719,88.83 79.231,199.76 82.531,320.63 3.457,126.56 -23.5,243.83 -71.25,337.37" /><path
         id="path152"
         style="fill:#f03a1f;fill-opacity:1;fill-rule:nonzero;stroke:none"
         d="m 65.7656,5899.69 c 11.7969,-33.67 -30.2226,-60.12 -54.7929,-34.26 -51.2852,53.98 -163.0197,214.75 -152.4807,293.21 16.723,124.52 503.539,441.47 548.285,382.77 44.75,-58.7 -337.4567,-290.59 -409.71059,-353.13 -46.71871,-40.44 44.98049,-220.91 68.69919,-288.59" /><path
         id="path154"
         style="fill:#ffffff;fill-opacity:1;fill-rule:nonzero;stroke:none"
         d="m 358.688,6457.55 c 0,0 -13.079,-333.99 -294.5864,-553.16 0,0 -121.543,220.77 -112.3438,265.94 9.1992,45.17 406.9302,287.22 406.9302,287.22" /><path
         id="path156"
         style="fill:#a91c24;fill-opacity:1;fill-rule:nonzero;stroke:none"
         d="m 223.953,6482.26 c -168.2733,-69.34 -358.851,-196.74 -396.926,-308.41 -44.691,-131.08 183.9457,-308.42 183.9457,-308.42 -51.2852,53.98 -163.0197,214.75 -152.4807,293.21 10.586,78.83 209.5041,234.68 365.461,323.62" /><path
         id="path158"
         style="fill:#f8d1ad;fill-opacity:1;fill-rule:nonzero;stroke:none"
         d="m 64.1016,5904.39 c 0,0 -121.543,220.77 -112.3438,265.94 9.1992,45.17 406.9302,287.22 406.9302,287.22 0,0 -372.0513,-267 -374.1138,-293.67 -2.0664,-26.68 79.5274,-259.49 79.5274,-259.49" /><path
         id="path160"
         style="fill:#f8d1ad;fill-opacity:1;fill-rule:nonzero;stroke:none"
         d="m -7.24219,6121.79 c 0,0 129.84019,-59.12 166.16419,-81.22 0,0 -106.4454,15.6 -173.7892,45 l 7.62501,36.22" /><path
         id="path162"
         style="fill:#f8d1ad;fill-opacity:1;fill-rule:nonzero;stroke:none"
         d="m 32.3398,6220.89 c 0,0 165.2232,-28.57 207.0702,-36.1 0,0 -172.2577,-5.12 -245.67172,-1.97 l 38.60152,38.07" /><path
         id="path164"
         style="fill:#f8d1ad;fill-opacity:1;fill-rule:nonzero;stroke:none"
         d="m 141.703,6306.51 148.156,23.93 c 0,0 -98.136,-46.01 -203.6637,-70.86 l 55.5077,46.93" /><path
         id="path166"
         style="fill:#ffffff;fill-opacity:1;fill-rule:nonzero;stroke:none"
         d="m -291.82,373.609 c 0,0 -114.532,236.5 -33.27,261.34 72.238,22.09 110.692,-103.051 110.692,-103.051 0,0 60.468,265.024 156.1714,246.614 95.6954,-18.403 50.66801,-261.34 50.66801,-261.34 0,0 74.24219,94.769 123.12859,59.348 C 164.457,541.09 20.9063,329.441 20.9063,329.441 L -291.82,373.609" /><path
         id="path168"
         style="fill:#f36437;fill-opacity:1;fill-rule:nonzero;stroke:none"
         d="M -692.902,-25.6914 C -686.422,211.5 -439.039,397.16 -140.355,389 158.324,380.832 395.199,181.93 388.723,-55.25 c -6.489,-237.191 -253.871,-422.852 -552.551,-414.691 -298.684,8.16 -535.559,207.062 -529.074,444.2496" /><path
         id="path170"
         style="fill:#f03a1f;fill-opacity:1;fill-rule:nonzero;stroke:none"
         d="M 388.723,-55.25 C 390.727,18.2188 369.336,88 330.039,149.59 235.195,224.719 106.016,272.789 -37.5547,276.719 -336.234,284.871 -583.617,99.2188 -590.102,-137.969 c -2.007,-73.472 19.379,-143.25 58.676,-204.84 94.844,-75.14 224.028,-123.203 367.598,-127.132 298.68,-8.161 546.062,177.5 552.551,414.691" /><path
         id="path172"
         style="fill:#ffffff;fill-opacity:1;fill-rule:nonzero;stroke:none"
         d="m 569.234,-512.988 82.899,82.886 c 27.73,27.743 34.605,70.102 17.066,105.172 l -4.281,8.559 c -19.039,38.082 -9.172,84.269 23.773,111.242 l 6.239,5.109 c 36.062,29.52 44.023,81.5 18.468,120.4614 v 0 c -27.457,41.8594 -16,98.0274 25.657,125.7774 l 0.191,0.1406 c 38.961,25.9609 51.895,77.2306 29.926,118.5626 L 717.043,263 c 0,0 -281.93,-173.6719 -281.93,-379.109 0,-205.45 134.121,-396.879 134.121,-396.879" /><path
         id="path174"
         style="fill:#f8d1ad;fill-opacity:1;fill-rule:nonzero;stroke:none"
         d="m 665.055,23.4688 c 0,0 -100.77,2.621 -172.539,-28.36724 L 470.43,-62.2617 c 0,0 116.867,65.35154 194.625,85.7305" /><path
         id="path176"
         style="fill:#f03a1f;fill-opacity:1;fill-rule:nonzero;stroke:none"
         d="M 729.887,242.641 C 759.961,269.16 727.848,316.852 692.07,298.75 554.359,229.102 393.012,106.27 352.461,-96.5 c -37.633,-188.16 60.863,-341.141 166.879,-446.121 28.769,-28.481 74.488,8.73 52.515,42.742 -72.32,111.938 -135.871,253.231 -106.812,376.719 31.906,135.5819 156.559,270.312 264.844,365.801" /><path
         id="path178"
         style="fill:#a91c24;fill-opacity:1;fill-rule:nonzero;stroke:none"
         d="M 201.234,281.332 C 169.594,303.352 134.691,322.5 97.2422,338.352 172.664,248.301 219.441,105.191 215.094,-54.4609 210.914,-207.332 160.652,-342.23 85.9453,-428.691 c 37.2737,14.171 72.1367,31.652 104.0117,52.023 48.715,88.828 79.223,199.758 82.527,320.6367 3.454,126.5508 -23.5,243.8123 -71.25,337.3633" /><path
         id="path180"
         style="fill:#a91c24;fill-opacity:1;fill-rule:nonzero;stroke:none"
         d="m -38.2656,294.281 -71.3794,-24.629 10.8012,-31.312 71.9454,24.82 67.9414,-23.121 -19.2461,-65.758 -77.1328,-37.441 14.4648,-29.809 74.2383,36.039 71.7538,-58.3708 20.899,25.7108 -71.4028,58.078 27.125,92.684 -84.41017,28.719 31.92577,56.3 -28.847644,24.071 C -21.3125,375.539 -43.6133,379.75 -66.4023,382.859 L -13.207,338.48 -38.2656,294.281" /><path
         id="path182"
         style="fill:#f03a1f;fill-opacity:1;fill-rule:nonzero;stroke:none"
         d="M 65.5117,-362.66 C 77.3125,-396.32 35.293,-422.77 10.7188,-396.898 -40.5664,-342.93 -152.301,-182.16 -141.762,-103.699 -125.039,20.8086 361.781,337.77 406.527,279.07 451.273,220.379 69.0664,-11.5195 -3.1875,-74.0586 -49.9063,-114.488 41.793,-294.969 65.5117,-362.66" /><path
         id="path184"
         style="fill:#ffffff;fill-opacity:1;fill-rule:nonzero;stroke:none"
         d="m 358.434,195.219 c 0,0 -13.075,-334 -294.5863,-553.168 0,0 -121.5391,220.769 -112.3399,265.949 9.1992,45.1719 406.9262,287.219 406.9262,287.219" /><path
         id="path186"
         style="fill:#a91c24;fill-opacity:1;fill-rule:nonzero;stroke:none"
         d="M 223.707,219.922 C 55.4297,150.578 -135.152,23.1797 -173.223,-88.4883 -217.914,-219.559 10.7188,-396.898 10.7188,-396.898 c -51.2852,53.968 -163.0198,214.738 -152.4808,293.199 10.59,78.8279 209.5042,234.679 365.469,323.621" /><path
         id="path188"
         style="fill:#f8d1ad;fill-opacity:1;fill-rule:nonzero;stroke:none"
         d="m 63.8477,-357.949 c 0,0 -121.5391,220.769 -112.3399,265.949 9.1992,45.1719 406.9262,287.219 406.9262,287.219 0,0 -372.0473,-267.0081 -374.1137,-293.6878 -2.0586,-26.6792 79.5274,-259.4802 79.5274,-259.4802" /><path
         id="path190"
         style="fill:#f8d1ad;fill-opacity:1;fill-rule:nonzero;stroke:none"
         d="m 141.453,44.1719 148.156,23.9297 c 0,0 -98.136,-46.0118 -203.6637,-70.86332 L 141.453,44.1719" /><path
         id="path192"
         style="fill:#ffffff;fill-opacity:1;fill-rule:nonzero;stroke:none"
         d="m 5952.66,2763.4 c 0,0 -82.76,-168.09 -37.87,-185.67 44.9,-17.58 80.25,67.58 80.25,67.58 0,0 -15.57,-167.27 41.2,-170.57 56.77,-3.31 51,144.1 51,144.1 0,0 41.42,-140.79 91.07,-138.7 49.65,2.1 15.33,172.94 15.33,172.94 0,0 69.49,-81.06 104.81,-65.86 35.31,15.19 -62.58,187.26 -62.58,187.26 l -283.21,-11.08" /><path
         id="path194"
         style="fill:#f8d1ad;fill-opacity:1;fill-rule:nonzero;stroke:none"
         d="m 5952.66,2763.4 c 0,0 -15.86,-32.22 -29.94,-69.92 60.67,-17.83 126.42,-27.32 195.09,-26.52 56.42,0.67 110.73,8.19 161.7,21.51 -19.89,44.21 -43.64,86.01 -43.64,86.01 l -283.21,-11.08" /><path
         id="path196"
         style="fill:#ffffff;fill-opacity:1;fill-rule:nonzero;stroke:none"
         d="m 5961.52,3567.91 c 0,0 -114.54,236.5 -33.27,261.34 72.24,22.08 110.7,-103.06 110.7,-103.06 0,0 60.46,265.02 156.16,246.61 95.7,-18.4 50.67,-261.34 50.67,-261.34 0,0 74.24,94.78 123.14,59.36 48.88,-35.43 -94.67,-247.08 -94.67,-247.08 l -312.73,44.17" /><path
         id="path198"
         style="fill:#f36437;fill-opacity:1;fill-rule:nonzero;stroke:none"
         d="m 5560.44,3168.6 c 6.48,237.19 253.87,422.85 552.55,414.69 298.68,-8.17 535.55,-207.06 529.07,-444.25 -6.48,-237.19 -253.87,-422.85 -552.55,-414.69 -298.68,8.17 -535.55,207.06 -529.07,444.25" /><path
         id="path200"
         style="fill:#f8d1ad;fill-opacity:1;fill-rule:nonzero;stroke:none"
         d="m 5759.94,2537.5 c -43.39,2.51 -84.24,27.2 -110.3,69.47 -41.04,66.49 -40.91,172.65 51.87,259.87 119.36,112.21 37.44,264.41 33.89,270.84 -8.83,15.98 -3.09,36.13 12.88,45 15.94,8.9 36.07,3.2 44.97,-12.73 39.05,-69.76 79.6,-232.97 -46.36,-351.38 -65.56,-61.64 -67.76,-133.23 -40.87,-176.82 15.76,-25.54 45.92,-47.93 83.54,-34.16 17.19,6.27 36.22,-2.56 42.5,-19.73 6.29,-17.17 -2.54,-36.2 -19.73,-42.49 -17.34,-6.35 -35.07,-8.88 -52.39,-7.87" /><path
         id="path202"
         style="fill:#f03a1f;fill-opacity:1;fill-rule:nonzero;stroke:none"
         d="m 6642.06,3139.04 c 2,73.48 -19.38,143.25 -58.68,204.85 -94.84,75.12 -224.02,123.2 -367.59,127.12 -298.68,8.16 -546.07,-177.5 -552.55,-414.69 -2.01,-73.47 19.38,-143.25 58.67,-204.84 94.85,-75.13 224.04,-123.2 367.6,-127.13 298.68,-8.16 546.07,177.5 552.55,414.69" /><path
         id="path204"
         style="fill:#ffffff;fill-opacity:1;fill-rule:nonzero;stroke:none"
         d="m 5749.98,3244 c 0,98.46 79.81,178.27 178.27,178.27 98.46,0 178.27,-79.81 178.27,-178.27 0,-98.46 -79.81,-178.28 -178.27,-178.28 -98.46,0 -178.27,79.82 -178.27,178.28" /><path
         id="path206"
         style="fill:#6b1517;fill-opacity:1;fill-rule:nonzero;stroke:none"
         d="m 5834.61,3244 c 0,51.71 41.92,93.64 93.64,93.64 51.72,0 93.64,-41.93 93.63,-93.64 0,-51.72 -41.92,-93.65 -93.63,-93.65 -51.72,0 -93.64,41.93 -93.64,93.65" /><path
         id="path208"
         style="fill:#a91c24;fill-opacity:1;fill-rule:nonzero;stroke:none"
         d="m 6245.6,3170.15 c 3.36,122.28 -40.36,238.56 -123.05,327.41 -30.37,32.63 -64.73,60 -101.93,81.9 -33.47,-3.64 -65.99,-9.65 -97.21,-17.97 59.11,-20.7 112.9,-55.56 157.12,-103.07 72.36,-77.74 110.61,-179.57 107.68,-286.7 -2.94,-107.14 -46.69,-206.72 -123.19,-280.4 -64.5,-62.11 -146.04,-99.15 -232.91,-107.58 31.98,-14.93 66.08,-27.3 101.81,-36.88 63.03,20.8 121.38,55.39 170.93,103.1 87.43,84.19 137.42,197.9 140.75,320.19" /><path
         id="path210"
         style="fill:#ffffff;fill-opacity:1;fill-rule:nonzero;stroke:none"
         d="m 5733.78,2414.59 c -43.4,2.51 -84.25,27.21 -110.31,69.47 -41.03,66.5 -40.91,172.65 51.88,259.88 119.36,112.2 37.43,264.41 33.88,270.83 -8.83,15.98 -3.08,36.14 12.88,45 15.94,8.91 36.07,3.2 44.98,-12.72 39.04,-69.77 79.6,-232.98 -46.37,-351.39 -65.55,-61.64 -67.76,-133.22 -40.88,-176.81 15.77,-25.54 45.93,-47.93 83.56,-34.17 17.18,6.28 36.22,-2.56 42.49,-19.72 6.29,-17.17 -2.54,-36.2 -19.72,-42.5 -17.35,-6.35 -35.09,-8.87 -52.39,-7.87" /><path
         id="path212"
         style="fill:#a91c24;fill-opacity:1;fill-rule:nonzero;stroke:none"
         d="m 6215.07,3488.58 -71.38,-24.63 10.81,-31.32 71.94,24.82 67.94,-23.12 -19.24,-65.75 -77.14,-37.45 14.47,-29.8 74.24,36.03 71.75,-58.36 20.9,25.7 -71.4,58.08 27.12,92.69 -84.41,28.72 31.93,56.3 -28.85,24.06 c -21.72,5.28 -44.02,9.49 -66.81,12.6 l 53.2,-44.38 -25.07,-44.19" /><path
         id="path214"
         style="fill:#a91c24;fill-opacity:1;fill-rule:nonzero;stroke:none"
         d="m 6234.32,2776.99 11.71,81.86 -32.82,4.69 -7.61,-53.42 h -64.75 l -56.54,52.21 -22.47,-24.35 56.46,-52.12 4.22,-61.54 c 11.12,0.23 22.15,0.77 33.1,1.53 l -3.5,51.14 h 82.2" /><path
         id="path216"
         style="fill:#f03a1f;fill-opacity:1;fill-rule:nonzero;stroke:none"
         d="m 6318.86,2831.64 c 11.79,-33.67 -30.23,-60.12 -54.8,-34.25 -51.29,53.97 -163.02,214.75 -152.48,293.21 16.72,124.51 503.54,441.47 548.28,382.77 44.76,-58.7 -337.45,-290.6 -409.7,-353.13 -46.72,-40.44 44.98,-220.92 68.7,-288.6" /><path
         id="path218"
         style="fill:#ffffff;fill-opacity:1;fill-rule:nonzero;stroke:none"
         d="m 6611.78,3389.5 c 0,0 -13.08,-333.99 -294.59,-553.15 0,0 -121.55,220.77 -112.35,265.94 9.21,45.17 406.94,287.21 406.94,287.21" /><path
         id="path220"
         style="fill:#ffffff;fill-opacity:1;fill-rule:nonzero;stroke:none"
         d="m 5648.74,3265.94 -65.64,65.66 c -26.21,26.19 -69.2,25.35 -94.32,-2.54 -23.56,-26.15 -19.88,-67.09 5,-91.97 l 52.81,-52.82 c 1.46,-1.45 2.99,-2.98 4.54,-4.55 -1.55,-1.56 -3.08,-3.1 -4.54,-4.55 l -52.81,-52.82 c -24.88,-24.88 -28.56,-65.82 -5,-91.97 25.12,-27.89 68.11,-28.73 94.32,-2.54 l 65.64,65.66 c 22.87,22.86 35.71,53.88 35.71,86.22 v 0 c 0,32.34 -12.84,63.36 -35.71,86.22" /><path
         id="path222"
         style="fill:#a91c24;fill-opacity:1;fill-rule:nonzero;stroke:none"
         d="m 6477.04,3414.22 c -168.27,-69.35 -358.85,-196.74 -396.92,-308.42 -44.69,-131.07 183.94,-308.41 183.94,-308.41 -51.29,53.97 -163.02,214.75 -152.48,293.21 10.59,78.82 209.5,234.67 365.46,323.62" /><path
         id="path224"
         style="fill:#8d1b21;fill-opacity:1;fill-rule:nonzero;stroke:none"
         d="m 5873.96,3279 c 0,19.82 24.3,35.9 54.29,35.9 29.99,0 54.3,-16.08 54.29,-35.9 0,-19.83 -24.31,-35.9 -54.29,-35.9 -29.99,-0.01 -54.29,16.07 -54.29,35.9" /><path
         id="path226"
         style="fill:#f8d1ad;fill-opacity:1;fill-rule:nonzero;stroke:none"
         d="m 5533.94,3105.17 32.22,32.23 c 11.22,11.22 17.53,26.44 17.53,42.32 v 0 c 0,15.88 -6.31,31.1 -17.53,42.32 l -32.22,32.23 c -12.87,12.86 -33.98,12.45 -46.3,-1.24 -1.3,-1.45 -1.83,-3.23 -2.8,-4.83 2.6,-3.94 5.53,-7.7 8.94,-11.11 l 52.81,-52.82 c 1.46,-1.45 2.99,-2.98 4.54,-4.55 -1.55,-1.56 -3.08,-3.1 -4.54,-4.55 l -52.81,-52.82 c -3.41,-3.41 -6.34,-7.17 -8.94,-11.11 0.97,-1.6 1.5,-3.38 2.8,-4.83 12.32,-13.68 33.43,-14.1 46.3,-1.24" /><path
         id="path228"
         style="fill:#f8d1ad;fill-opacity:1;fill-rule:nonzero;stroke:none"
         d="m 6317.19,2836.35 c 0,0 -121.55,220.77 -112.35,265.94 9.21,45.17 406.94,287.21 406.94,287.21 0,0 -372.05,-266.99 -374.11,-293.67 -2.07,-26.68 79.52,-259.48 79.52,-259.48" /><path
         id="path230"
         style="fill:#f8d1ad;fill-opacity:1;fill-rule:nonzero;stroke:none"
         d="m 6245.85,3053.75 c 0,0 129.83,-59.12 166.16,-81.23 0,0 -106.44,15.61 -173.79,45.01 l 7.63,36.22" /><path
         id="path232"
         style="fill:#f8d1ad;fill-opacity:1;fill-rule:nonzero;stroke:none"
         d="m 6285.43,3152.84 c 0,0 165.22,-28.56 207.07,-36.1 0,0 -172.26,-5.12 -245.66,-1.96 l 38.59,38.06" /><path
         id="path234"
         style="fill:#ffffff;fill-opacity:1;fill-rule:nonzero;stroke:none"
         d="m -300.43,2763.4 c 0,0 -82.754,-168.09 -37.859,-185.67 44.891,-17.58 80.238,67.58 80.238,67.58 0,0 -15.562,-167.27 41.203,-170.57 56.766,-3.31 50.996,144.1 50.996,144.1 0,0 41.426,-140.79 91.0707,-138.7 49.6485,2.1 15.336,172.94 15.336,172.94 0,0 69.4805,-81.06 104.8008,-65.86 35.3242,15.19 -62.5782,187.26 -62.5782,187.26 L -300.43,2763.4" /><path
         id="path236"
         style="fill:#f8d1ad;fill-opacity:1;fill-rule:nonzero;stroke:none"
         d="m -300.43,2763.4 c 0,0 -15.859,-32.22 -29.925,-69.92 60.66,-17.83 126.406,-27.32 195.082,-26.52 56.4097,0.67 110.7183,8.19 161.6988,21.51 -19.89455,44.21 -43.6485,86.01 -43.6485,86.01 L -300.43,2763.4" /><path
         id="path238"
         style="fill:#ffffff;fill-opacity:1;fill-rule:nonzero;stroke:none"
         d="m -291.566,3567.91 c 0,0 -114.539,236.5 -33.274,261.34 72.238,22.08 110.695,-103.06 110.695,-103.06 0,0 60.469,265.02 156.1645,246.61 95.7032,-18.4 50.67191,-261.34 50.67191,-261.34 0,0 74.24219,94.78 123.13259,59.36 48.887,-35.43 -94.6638,-247.08 -94.6638,-247.08 l -312.7262,44.17" /><path
         id="path240"
         style="fill:#f36437;fill-opacity:1;fill-rule:nonzero;stroke:none"
         d="m -692.652,3168.6 c 6.484,237.19 253.867,422.85 552.55,414.69 298.68,-8.17 535.555,-207.06 529.071,-444.25 -6.481,-237.19 -253.867,-422.85 -552.547,-414.69 -298.684,8.17 -535.555,207.06 -529.074,444.25" /><path
         id="path242"
         style="fill:#f03a1f;fill-opacity:1;fill-rule:nonzero;stroke:none"
         d="m 388.969,3139.04 c 2.008,73.48 -19.379,143.25 -58.676,204.85 -94.844,75.12 -224.027,123.2 -367.5938,127.12 -298.6792,8.16 -546.0662,-177.5 -552.5472,-414.69 -2.011,-73.47 19.379,-143.25 58.676,-204.84 94.844,-75.13 224.027,-123.2 367.594,-127.13 298.68,-8.16 546.066,177.5 552.547,414.69" /><path
         id="path244"
         style="fill:#ffffff;fill-opacity:1;fill-rule:nonzero;stroke:none"
         d="m 569.488,2681.3 82.899,82.9 c 27.726,27.73 34.601,70.09 17.066,105.17 l -4.281,8.56 c -19.039,38.08 -9.172,84.26 23.769,111.24 l 6.243,5.11 c 36.054,29.52 44.027,81.49 18.464,120.46 v 0 c -27.453,41.85 -15.996,98.02 25.653,125.78 l 0.203,0.13 c 38.953,25.96 51.891,77.23 29.922,118.57 l -52.129,98.07 c 0,0 -281.938,-173.67 -281.938,-379.11 0,-205.44 134.129,-396.88 134.129,-396.88" /><path
         id="path246"
         style="fill:#f8d1ad;fill-opacity:1;fill-rule:nonzero;stroke:none"
         d="m 665.305,3217.76 c 0,0 -100.762,2.62 -172.539,-28.36 l -22.086,-57.37 c 0,0 116.871,65.35 194.625,85.73" /><path
         id="path248"
         style="fill:#f8d1ad;fill-opacity:1;fill-rule:nonzero;stroke:none"
         d="m 611.676,2915.39 c 0,0 -99.547,15.83 -164.457,59.4 l -11.242,60.43 c 0,0 102.972,-85.58 175.699,-119.83" /><path
         id="path250"
         style="fill:#f03a1f;fill-opacity:1;fill-rule:nonzero;stroke:none"
         d="m 730.141,3436.93 c 30.07,26.52 -2.039,74.21 -37.817,56.11 -137.711,-69.64 -299.058,-192.48 -339.613,-395.25 -37.633,-188.15 60.863,-341.13 166.879,-446.11 28.769,-28.49 74.488,8.73 52.519,42.73 -72.324,111.95 -135.871,253.24 -106.816,376.71 31.902,135.6 156.562,270.32 264.848,365.81" /><path
         id="path252"
         style="fill:#a91c24;fill-opacity:1;fill-rule:nonzero;stroke:none"
         d="m 201.484,3475.63 c -31.64,22.02 -66.543,41.16 -103.9879,57.02 75.4259,-90.06 122.1989,-233.17 117.8519,-392.81 -4.18,-152.89 -54.446,-287.77 -129.1488,-374.23 37.2738,14.16 72.1368,31.64 104.0038,52.01 48.723,88.84 79.231,199.76 82.531,320.64 3.457,126.56 -23.5,243.82 -71.25,337.37" /><path
         id="path254"
         style="fill:#a91c24;fill-opacity:1;fill-rule:nonzero;stroke:none"
         d="m -38.0195,3488.58 -71.3755,-24.63 10.8052,-31.32 71.9375,24.82 67.9492,-23.12 -19.25,-65.75 -77.1367,-37.45 14.4726,-29.8 74.2383,36.03 71.7499,-58.36 20.902,25.7 -71.4019,58.08 27.1211,92.69 -84.40626,28.72 31.92576,56.3 -28.847637,24.06 c -21.722663,5.28 -44.023463,9.49 -66.812463,12.6 l 53.1953,-44.38 -25.0664,-44.19" /><path
         id="path256"
         style="fill:#f03a1f;fill-opacity:1;fill-rule:nonzero;stroke:none"
         d="m 65.7656,2831.64 c 11.7969,-33.67 -30.2226,-60.12 -54.7929,-34.25 -51.2852,53.97 -163.0197,214.75 -152.4807,293.21 16.723,124.51 503.539,441.47 548.285,382.77 44.75,-58.7 -337.4567,-290.6 -409.71059,-353.13 -46.71871,-40.44 44.98049,-220.92 68.69919,-288.6" /><path
         id="path258"
         style="fill:#ffffff;fill-opacity:1;fill-rule:nonzero;stroke:none"
         d="m 358.688,3389.5 c 0,0 -13.079,-333.99 -294.5864,-553.15 0,0 -121.543,220.77 -112.3438,265.94 9.2031,45.17 406.9302,287.21 406.9302,287.21" /><path
         id="path260"
         style="fill:#a91c24;fill-opacity:1;fill-rule:nonzero;stroke:none"
         d="M 223.953,3414.22 C 55.6797,3344.87 -134.898,3217.48 -172.973,3105.8 -217.66,2974.73 10.9727,2797.39 10.9727,2797.39 c -51.2852,53.97 -163.0197,214.75 -152.4807,293.21 10.586,78.82 209.5041,234.67 365.461,323.62" /><path
         id="path262"
         style="fill:#f8d1ad;fill-opacity:1;fill-rule:nonzero;stroke:none"
         d="m 64.1016,2836.35 c 0,0 -121.543,220.77 -112.3438,265.94 9.2031,45.17 406.9302,287.21 406.9302,287.21 0,0 -372.0513,-266.99 -374.1138,-293.67 -2.0664,-26.68 79.5274,-259.48 79.5274,-259.48" /><path
         id="path264"
         style="fill:#f8d1ad;fill-opacity:1;fill-rule:nonzero;stroke:none"
         d="m -7.24219,3053.75 c 0,0 129.84019,-59.12 166.16419,-81.23 0,0 -106.4454,15.61 -173.7892,45.01 l 7.62501,36.22" /><path
         id="path266"
         style="fill:#f8d1ad;fill-opacity:1;fill-rule:nonzero;stroke:none"
         d="m 32.3398,3152.84 c 0,0 165.2232,-28.56 207.0742,-36.1 0,0 -172.2577,-5.12 -245.66791,-1.96 l 38.59371,38.06" /><path
         id="path268"
         style="fill:#f8d1ad;fill-opacity:1;fill-rule:nonzero;stroke:none"
         d="m 141.711,3238.46 148.148,23.93 c 0,0 -98.132,-46.01 -203.6598,-70.86 l 55.5118,46.93" /><path
         id="path270"
         style="fill:#ffffff;fill-opacity:1;fill-rule:nonzero;stroke:none"
         d="m 2840.73,5834.59 c 0,0 -82.75,-168.08 -37.86,-185.66 44.89,-17.59 80.24,67.57 80.24,67.57 0,0 -15.56,-167.27 41.21,-170.57 56.76,-3.3 50.99,144.11 50.99,144.11 0,0 41.43,-140.79 91.08,-138.7 49.65,2.09 15.33,172.94 15.33,172.94 0,0 69.48,-81.07 104.79,-65.87 35.33,15.2 -62.57,187.27 -62.57,187.27 l -283.21,-11.09" /><path
         id="path272"
         style="fill:#f8d1ad;fill-opacity:1;fill-rule:nonzero;stroke:none"
         d="m 2840.73,5834.59 c 0,0 -15.86,-32.21 -29.93,-69.91 60.66,-17.83 126.41,-27.33 195.09,-26.52 56.41,0.66 110.71,8.18 161.7,21.51 -19.89,44.21 -43.65,86.01 -43.65,86.01 l -283.21,-11.09" /><path
         id="path274"
         style="fill:#f36437;fill-opacity:1;fill-rule:nonzero;stroke:none"
         d="m 2448.52,6239.8 c 6.47,237.18 253.86,422.85 552.53,414.68 298.69,-8.16 535.56,-207.06 529.09,-444.25 -6.49,-237.18 -253.87,-422.84 -552.55,-414.68 -298.68,8.16 -535.56,207.06 -529.07,444.25" /><path
         id="path276"
         style="fill:#f8d1ad;fill-opacity:1;fill-rule:nonzero;stroke:none"
         d="m 2648.02,5608.69 c -43.39,2.51 -84.24,27.21 -110.32,69.47 -41.02,66.5 -40.89,172.65 51.89,259.88 119.36,112.21 37.43,264.41 33.89,270.84 -8.83,15.98 -3.09,36.13 12.88,45 15.93,8.9 36.06,3.2 44.97,-12.74 39.04,-69.76 79.6,-232.96 -46.36,-351.38 -65.57,-61.64 -67.76,-133.22 -40.88,-176.81 15.76,-25.54 45.93,-47.93 83.55,-34.16 17.18,6.26 36.22,-2.57 42.5,-19.73 6.28,-17.17 -2.54,-36.2 -19.73,-42.5 -17.34,-6.35 -35.08,-8.87 -52.39,-7.87" /><path
         id="path278"
         style="fill:#f03a1f;fill-opacity:1;fill-rule:nonzero;stroke:none"
         d="m 3530.14,6210.23 c 2,73.48 -19.39,143.26 -58.68,204.85 -94.85,75.13 -224.03,123.21 -367.6,127.12 -298.68,8.17 -546.07,-177.5 -552.55,-414.68 -2,-73.48 19.38,-143.25 58.68,-204.85 94.84,-75.12 224.02,-123.2 367.6,-127.12 298.68,-8.16 546.06,177.5 552.55,414.68" /><path
         id="path280"
         style="fill:#ffffff;fill-opacity:1;fill-rule:nonzero;stroke:none"
         d="m 3710.64,5752.5 82.9,82.9 c 27.74,27.73 34.61,70.08 17.08,105.16 l -4.29,8.56 c -19.04,38.08 -9.16,84.27 23.78,111.24 l 6.24,5.11 c 36.05,29.53 44.02,81.49 18.46,120.46 v 0 c -27.46,41.86 -16,98.02 25.66,125.78 l 0.19,0.13 c 38.96,25.97 51.9,77.23 29.93,118.58 l -52.13,98.07 c 0,0 -281.94,-173.67 -281.94,-379.12 0,-205.44 134.12,-396.87 134.12,-396.87" /><path
         id="path282"
         style="fill:#f8d1ad;fill-opacity:1;fill-rule:nonzero;stroke:none"
         d="m 3806.46,6288.96 c 0,0 -100.76,2.61 -172.53,-28.37 l -22.08,-57.36 c 0,0 116.86,65.34 194.61,85.73" /><path
         id="path284"
         style="fill:#f8d1ad;fill-opacity:1;fill-rule:nonzero;stroke:none"
         d="m 3752.84,5986.59 c 0,0 -99.55,15.83 -164.46,59.4 l -11.24,60.43 c 0,0 102.98,-85.59 175.7,-119.83" /><path
         id="path286"
         style="fill:#ffffff;fill-opacity:1;fill-rule:nonzero;stroke:none"
         d="m 2638.06,6315.2 c 0,98.45 79.81,178.27 178.27,178.27 98.46,0 178.27,-79.82 178.27,-178.27 0,-98.47 -79.81,-178.28 -178.27,-178.28 -98.46,0 -178.27,79.81 -178.27,178.28" /><path
         id="path288"
         style="fill:#6b1517;fill-opacity:1;fill-rule:nonzero;stroke:none"
         d="m 2722.69,6315.19 c 0,51.72 41.92,93.65 93.64,93.65 51.71,0 93.63,-41.93 93.63,-93.65 0,-51.71 -41.92,-93.64 -93.64,-93.64 -51.71,0 -93.63,41.92 -93.63,93.64" /><path
         id="path290"
         style="fill:#a91c24;fill-opacity:1;fill-rule:nonzero;stroke:none"
         d="m 3133.67,6241.34 c 3.36,122.29 -40.35,238.57 -123.04,327.42 -30.38,32.62 -64.74,60 -101.94,81.9 -33.48,-3.64 -65.98,-9.66 -97.21,-17.98 59.12,-20.69 112.9,-55.56 157.11,-103.06 72.38,-77.74 110.63,-179.57 107.69,-286.7 -2.93,-107.15 -46.68,-206.73 -123.18,-280.4 -64.52,-62.12 -146.04,-99.15 -232.92,-107.58 31.99,-14.93 66.08,-27.3 101.81,-36.88 63.04,20.8 121.39,55.39 170.94,103.09 87.42,84.19 137.41,197.9 140.74,320.19" /><path
         id="path292"
         style="fill:#f03a1f;fill-opacity:1;fill-rule:nonzero;stroke:none"
         d="m 3871.3,6508.13 c 30.08,26.51 -2.03,74.21 -37.81,56.11 -137.71,-69.64 -299.07,-192.48 -339.61,-395.26 -37.64,-188.15 60.86,-341.13 166.87,-446.11 28.77,-28.48 74.49,8.73 52.52,42.74 -72.32,111.94 -135.87,253.23 -106.81,376.71 31.9,135.59 156.56,270.32 264.84,365.81" /><path
         id="path294"
         style="fill:#ffffff;fill-opacity:1;fill-rule:nonzero;stroke:none"
         d="m 2621.86,5485.79 c -43.4,2.51 -84.25,27.21 -110.32,69.47 -41.02,66.49 -40.91,172.65 51.88,259.87 119.36,112.21 37.43,264.41 33.88,270.84 -8.82,15.98 -3.07,36.14 12.89,45 15.93,8.91 36.06,3.2 44.97,-12.73 39.05,-69.76 79.61,-232.97 -46.36,-351.38 -65.56,-61.65 -67.76,-133.23 -40.88,-176.81 15.76,-25.55 45.93,-47.93 83.55,-34.17 17.18,6.27 36.23,-2.56 42.49,-19.73 6.29,-17.17 -2.53,-36.2 -19.72,-42.49 -17.35,-6.36 -35.08,-8.88 -52.38,-7.87" /><path
         id="path296"
         style="fill:#a91c24;fill-opacity:1;fill-rule:nonzero;stroke:none"
         d="m 3342.65,6546.82 c -31.64,22.02 -66.55,41.16 -104,57.02 75.43,-90.05 122.21,-233.16 117.85,-392.81 -4.18,-152.88 -54.43,-287.76 -129.14,-374.23 37.27,14.17 72.13,31.65 104.01,52.02 48.72,88.83 79.23,199.76 82.53,320.63 3.45,126.56 -23.5,243.82 -71.25,337.37" /><path
         id="path298"
         style="fill:#a91c24;fill-opacity:1;fill-rule:nonzero;stroke:none"
         d="m 3122.39,5848.19 11.7,81.86 -32.8,4.68 -7.63,-53.41 h -64.73 l -56.55,52.2 -22.47,-24.35 56.47,-52.11 4.22,-61.54 c 11.12,0.23 22.14,0.77 33.09,1.52 l -3.5,51.15 h 82.2" /><path
         id="path300"
         style="fill:#f03a1f;fill-opacity:1;fill-rule:nonzero;stroke:none"
         d="m 3206.92,5902.84 c 11.81,-33.67 -30.21,-60.13 -54.79,-34.26 -51.28,53.98 -163.02,214.75 -152.47,293.21 16.72,124.51 503.53,441.47 548.28,382.78 44.75,-58.7 -337.46,-290.6 -409.72,-353.14 -46.71,-40.44 44.99,-220.91 68.7,-288.59" /><path
         id="path302"
         style="fill:#ffffff;fill-opacity:1;fill-rule:nonzero;stroke:none"
         d="m 3499.85,6460.7 c 0,0 -13.07,-333.99 -294.59,-553.15 0,0 -121.54,220.76 -112.34,265.93 9.2,45.17 406.93,287.22 406.93,287.22" /><path
         id="path304"
         style="fill:#ffffff;fill-opacity:1;fill-rule:nonzero;stroke:none"
         d="m 2536.82,6337.14 -65.66,65.65 c -26.19,26.2 -69.2,25.35 -94.3,-2.53 -23.56,-26.15 -19.89,-67.09 5,-91.97 l 52.81,-52.82 c 1.45,-1.45 2.98,-2.99 4.54,-4.56 -1.56,-1.56 -3.09,-3.09 -4.54,-4.55 l -52.81,-52.81 c -24.89,-24.89 -28.56,-65.82 -5,-91.98 25.1,-27.89 68.11,-28.73 94.3,-2.53 l 65.66,65.66 c 22.87,22.86 35.71,53.87 35.71,86.21 v 0 c 0,32.34 -12.84,63.36 -35.71,86.23" /><path
         id="path306"
         style="fill:#a91c24;fill-opacity:1;fill-rule:nonzero;stroke:none"
         d="m 3365.12,6485.41 c -168.27,-69.34 -358.85,-196.74 -396.93,-308.41 -44.69,-131.07 183.94,-308.42 183.94,-308.42 -51.28,53.98 -163.01,214.76 -152.47,293.21 10.58,78.83 209.5,234.67 365.46,323.62" /><path
         id="path308"
         style="fill:#f8d1ad;fill-opacity:1;fill-rule:nonzero;stroke:none"
         d="m 2422.01,6176.37 32.22,32.22 c 11.23,11.23 17.54,26.45 17.54,42.32 v 0 c 0,15.88 -6.31,31.1 -17.54,42.33 l -32.22,32.22 c -12.86,12.87 -33.97,12.45 -46.3,-1.24 -1.3,-1.44 -1.82,-3.22 -2.79,-4.83 2.6,-3.93 5.53,-7.69 8.94,-11.1 l 52.81,-52.82 c 1.45,-1.45 2.98,-2.99 4.54,-4.56 -1.56,-1.56 -3.09,-3.09 -4.54,-4.55 l -52.81,-52.81 c -3.41,-3.42 -6.34,-7.17 -8.94,-11.11 0.97,-1.6 1.49,-3.39 2.79,-4.83 12.33,-13.69 33.44,-14.1 46.3,-1.24" /><path
         id="path310"
         style="fill:#f8d1ad;fill-opacity:1;fill-rule:nonzero;stroke:none"
         d="m 3205.26,5907.55 c 0,0 -121.54,220.76 -112.34,265.93 9.2,45.17 406.93,287.22 406.93,287.22 0,0 -372.05,-267 -374.12,-293.68 -2.06,-26.68 79.53,-259.47 79.53,-259.47" /><path
         id="path312"
         style="fill:#f8d1ad;fill-opacity:1;fill-rule:nonzero;stroke:none"
         d="m 3133.92,6124.95 c 0,0 129.84,-59.12 166.17,-81.23 0,0 -106.45,15.61 -173.79,45 l 7.62,36.23" /><path
         id="path314"
         style="fill:#f8d1ad;fill-opacity:1;fill-rule:nonzero;stroke:none"
         d="m 3173.5,6224.04 c 0,0 165.22,-28.56 207.08,-36.1 0,0 -172.26,-5.12 -245.68,-1.97 l 38.6,38.07" /><path
         id="path316"
         style="fill:#ffffff;fill-opacity:1;fill-rule:nonzero;stroke:none"
         d="m 2849.59,372.59 c 0,0 -114.53,236.492 -33.26,261.34 72.23,22.09 110.68,-103.059 110.68,-103.059 0,0 60.47,265.02 156.17,246.609 95.71,-18.398 50.68,-261.339 50.68,-261.339 0,0 74.24,94.781 123.12,59.359 48.9,-35.43 -94.66,-247.078 -94.66,-247.078 l -312.73,44.168" /><path
         id="path318"
         style="fill:#f36437;fill-opacity:1;fill-rule:nonzero;stroke:none"
         d="m 2448.52,-26.7188 c 6.47,237.1878 253.86,422.8478 552.53,414.6878 298.69,-8.16 535.56,-207.059 529.09,-444.2503 -6.49,-237.1877 -253.87,-422.8477 -552.55,-414.6877 -298.68,8.168 -535.56,207.059 -529.07,444.2502" /><path
         id="path320"
         style="fill:#f03a1f;fill-opacity:1;fill-rule:nonzero;stroke:none"
         d="m 3530.14,-56.2813 c 2,73.4805 -19.39,143.2501 -58.68,204.8513 -94.85,75.129 -224.03,123.2 -367.6,127.121 -298.68,8.168 -546.07,-177.4996 -552.55,-414.679 -2,-73.481 19.38,-143.25 58.68,-204.852 94.84,-75.121 224.02,-123.199 367.6,-127.129 298.68,-8.16 546.06,177.5 552.55,414.6877" /><path
         id="path322"
         style="fill:#ffffff;fill-opacity:1;fill-rule:nonzero;stroke:none"
         d="m 3710.64,-514.012 82.9,82.903 c 27.74,27.718 34.61,70.089 17.08,105.148 l -4.29,8.57 c -19.04,38.082 -9.16,84.27 23.78,111.243 l 6.24,5.109 c 36.05,29.519 44.02,81.488 18.46,120.4609 v 0 c -27.46,41.8476 -16,98.0195 25.66,125.7773 l 0.19,0.1328 c 38.96,25.9571 51.9,77.227 29.93,118.566 l -52.13,98.071 c 0,0 -281.94,-173.6682 -281.94,-379.11 0,-205.449 134.12,-396.871 134.12,-396.871" /><path
         id="path324"
         style="fill:#f8d1ad;fill-opacity:1;fill-rule:nonzero;stroke:none"
         d="m 3806.46,22.4492 c 0,0 -100.76,2.6094 -172.53,-28.37889 l -22.08,-57.35161 c 0,0 116.86,65.33989 194.61,85.7305" /><path
         id="path326"
         style="fill:#ffffff;fill-opacity:1;fill-rule:nonzero;stroke:none"
         d="m 2638.06,48.6797 c 0,98.4613 79.81,178.2693 178.27,178.2693 98.46,0 178.27,-79.808 178.27,-178.2693 0,-98.4492 -79.81,-178.2697 -178.27,-178.2697 -98.46,0 -178.27,79.8205 -178.27,178.2697" /><path
         id="path328"
         style="fill:#6b1517;fill-opacity:1;fill-rule:nonzero;stroke:none"
         d="m 2722.69,48.6797 c 0,51.7113 41.92,93.6483 93.64,93.6483 51.71,0 93.63,-41.93 93.63,-93.6483 0,-51.71876 -41.92,-93.6406 -93.64,-93.6406 -51.71,0 -93.63,41.92184 -93.63,93.6406" /><path
         id="path330"
         style="fill:#a91c24;fill-opacity:1;fill-rule:nonzero;stroke:none"
         d="m 3133.67,-25.1719 c 3.36,122.2813 -40.35,238.5629 -123.04,327.4099 -30.38,32.621 -64.74,60.012 -101.94,81.91 -33.48,-3.636 -65.98,-9.668 -97.21,-17.988 59.12,-20.691 112.9,-55.551 157.11,-103.051 72.38,-77.738 110.63,-179.5699 107.69,-286.7106 -2.93,-107.1364 -46.68,-206.7184 -123.18,-280.3864 -64.52,-62.121 -146.04,-99.153 -232.92,-107.582 31.99,-14.93 66.08,-27.309 101.81,-36.891 63.04,20.801 121.39,55.391 170.94,103.102 87.42,84.191 137.41,197.898 140.74,320.1871" /><path
         id="path332"
         style="fill:#f03a1f;fill-opacity:1;fill-rule:nonzero;stroke:none"
         d="m 3871.3,241.609 c 30.08,26.532 -2.04,74.211 -37.81,56.121 -137.71,-69.652 -299.07,-192.48 -339.61,-395.2613 -37.64,-188.1487 60.86,-341.1287 166.87,-446.1097 28.77,-28.488 74.49,8.731 52.52,42.731 -72.32,111.949 -135.87,253.238 -106.81,376.719 31.9,135.5894 156.56,270.312 264.84,365.8" /><path
         id="path334"
         style="fill:#a91c24;fill-opacity:1;fill-rule:nonzero;stroke:none"
         d="m 3342.65,280.301 c -31.64,22.027 -66.55,41.179 -104,57.027 75.43,-90.047 122.21,-233.168 117.85,-392.8163 -4.18,-152.8707 -54.43,-287.7497 -129.14,-374.2307 37.27,14.168 72.13,31.649 104.01,52.028 48.72,88.82 79.23,199.761 82.53,320.6324 3.45,126.5586 -23.5,243.8206 -71.25,337.3596" /><path
         id="path336"
         style="fill:#a91c24;fill-opacity:1;fill-rule:nonzero;stroke:none"
         d="m 3103.14,293.262 -71.37,-24.641 10.81,-31.301 71.93,24.809 67.95,-23.117 -19.25,-65.762 -77.14,-37.43 14.48,-29.808 74.24,36.027 71.74,-58.3593 20.9,25.7113 -71.39,58.07 27.11,92.687 -84.4,28.723 31.92,56.297 -28.84,24.062 c -21.72,5.282 -44.03,9.489 -66.81,12.61 l 53.18,-44.391 -25.06,-44.187" /><path
         id="path338"
         style="fill:#f03a1f;fill-opacity:1;fill-rule:nonzero;stroke:none"
         d="m 3206.92,-363.68 c 11.81,-33.66 -30.21,-60.121 -54.79,-34.25 -51.28,53.981 -163.02,214.75 -152.47,293.2 16.72,124.5308 503.53,441.48 548.28,382.781 44.75,-58.692 -337.46,-290.6018 -409.72,-353.1408 -46.71,-40.4302 44.99,-220.8982 68.7,-288.5902" /><path
         id="path340"
         style="fill:#ffffff;fill-opacity:1;fill-rule:nonzero;stroke:none"
         d="m 3499.85,194.191 c 0,0 -13.07,-333.992 -294.59,-553.16 0,0 -121.54,220.77 -112.34,265.9377 9.2,45.1719 406.93,287.2223 406.93,287.2223" /><path
         id="path342"
         style="fill:#ffffff;fill-opacity:1;fill-rule:nonzero;stroke:none"
         d="m 2536.82,70.6289 -65.66,65.6521 c -26.19,26.199 -69.2,25.348 -94.3,-2.539 -23.56,-26.14 -19.89,-67.0818 5,-91.9725 l 52.81,-52.8086 c 1.45,-1.4609 2.98,-2.9922 4.54,-4.5507 -1.56,-1.5704 -3.09,-3.1094 -4.54,-4.5704 l -52.81,-52.8086 c -24.89,-24.8789 -28.56,-65.8202 -5,-91.9722 25.1,-27.887 68.11,-28.727 94.3,-2.528 l 65.66,65.649 c 22.87,22.8708 35.71,53.8786 35.71,86.2302 v 0 c 0,32.332 -12.84,63.3515 -35.71,86.2187" /><path
         id="path344"
         style="fill:#a91c24;fill-opacity:1;fill-rule:nonzero;stroke:none"
         d="M 3365.12,218.898 C 3196.85,149.551 3006.27,22.1602 2968.19,-89.5195 2923.5,-220.578 3152.13,-397.93 3152.13,-397.93 c -51.28,53.981 -163.01,214.75 -152.47,293.2 10.58,78.8316 209.5,234.679 365.46,323.628" /><path
         id="path346"
         style="fill:#8d1b21;fill-opacity:1;fill-rule:nonzero;stroke:none"
         d="m 2762.03,83.6719 c 0,19.8401 24.31,35.9101 54.3,35.9101 29.98,0 54.29,-16.07 54.29,-35.9023 0,-19.8281 -24.31,-35.9102 -54.3,-35.9102 -29.98,0 -54.29,16.0821 -54.29,35.9024" /><path
         id="path348"
         style="fill:#f8d1ad;fill-opacity:1;fill-rule:nonzero;stroke:none"
         d="m 2422.01,-90.1484 32.22,32.2304 c 11.23,11.2188 17.54,26.4492 17.54,42.3282 v 0 c 0,15.859331 -6.31,31.0898 -17.54,42.3203 l -32.22,32.2304 c -12.86,12.8594 -33.97,12.4375 -46.3,-1.25 -1.3,-1.4414 -1.82,-3.2304 -2.79,-4.832 2.6,-3.9297 5.53,-7.6875 8.94,-11.1094 l 52.81,-52.8086 c 1.45,-1.4609 2.98,-2.9922 4.54,-4.5507 -1.56,-1.5704 -3.09,-3.1094 -4.54,-4.5704 l -52.81,-52.8086 c -3.41,-3.4101 -6.34,-7.1718 -8.94,-11.1015 0.97,-1.6016 1.49,-3.3906 2.79,-4.8399 12.33,-13.6918 33.44,-14.1018 46.3,-1.2382" /><path
         id="path350"
         style="fill:#f8d1ad;fill-opacity:1;fill-rule:nonzero;stroke:none"
         d="m 3205.26,-358.969 c 0,0 -121.54,220.77 -112.34,265.9377 9.2,45.1719 406.93,287.2223 406.93,287.2223 0,0 -372.05,-266.9996 -374.12,-293.6793 -2.06,-26.6797 79.53,-259.4807 79.53,-259.4807" /><path
         id="path352"
         style="fill:#f8d1ad;fill-opacity:1;fill-rule:nonzero;stroke:none"
         d="m 3282.87,43.1484 148.16,23.9219 c 0,0 -98.14,-46 -203.67,-70.85936 l 55.51,46.93746" /><path
         id="path354"
         style="fill:#ffffff;fill-opacity:1;fill-rule:nonzero;stroke:none"
         d="m 1896.77,4591.3 c 0,0 177.37,-60.34 158.05,-104.51 -19.3,-44.18 -104.52,-8.96 -104.52,-8.96 0,0 129.28,-107.27 91.48,-149.75 -37.8,-42.47 -137.96,65.84 -137.96,65.84 0,0 70.27,-128.85 33.68,-162.47 -36.59,-33.63 -133.13,111.44 -133.13,111.44 0,0 8.19,-106.44 -27.53,-120.68 -35.72,-14.23 -88.16,176.67 -88.16,176.67 l 208.09,192.42" /><path
         id="path356"
         style="fill:#f8d1ad;fill-opacity:1;fill-rule:nonzero;stroke:none"
         d="m 1896.77,4591.3 c 0,0 34,-11.57 70.6,-28.28 -30.29,-55.5 -70.06,-108.7 -119.2,-156.69 -40.36,-39.42 -84.07,-72.51 -129.54,-99.13 -17.19,45.32 -29.95,91.68 -29.95,91.68 l 208.09,192.42" /><path
         id="path358"
         style="fill:#ffffff;fill-opacity:1;fill-rule:nonzero;stroke:none"
         d="m 1321.63,5153.91 c 0,0 -86.24,248.22 -161.27,208.32 -66.7,-35.46 -5.4,-151.15 -5.4,-151.15 0,0 -230.151,144.64 -284.808,63.96 -54.66,-80.69 148.968,-220.62 148.968,-220.62 0,0 -119.522,14.52 -129.038,-45.1 -9.519,-59.62 241.638,-107.78 241.638,-107.78 l 189.91,252.37" /><path
         id="path360"
         style="fill:#f36437;fill-opacity:1;fill-rule:nonzero;stroke:none"
         d="m 1887.59,5155.16 c -172.3,163.14 -478.51,119.5 -683.94,-97.48 -205.427,-216.97 -232.283,-525.11 -59.98,-688.24 172.3,-163.14 478.51,-119.49 683.94,97.48 205.42,216.97 232.28,525.11 59.98,688.24" /><path
         id="path362"
         style="fill:#f8d1ad;fill-opacity:1;fill-rule:nonzero;stroke:none"
         d="m 2192.77,4567.83 c 28.91,32.46 40.34,78.81 28.88,127.13 -18.01,76.03 -93.16,151 -220.44,147.07 -163.74,-5.06 -213.44,160.5 -215.47,167.55 -5.06,17.55 -23.38,27.73 -40.93,22.72 -17.57,-4.98 -27.77,-23.25 -22.8,-40.81 21.72,-76.94 108.45,-221.02 281.25,-215.68 89.94,2.77 142.12,-46.29 153.92,-96.12 6.92,-29.21 1.42,-66.37 -34.91,-83.24 -16.59,-7.71 -23.8,-27.43 -16.11,-44 7.7,-16.58 27.4,-23.8 44,-16.1 16.76,7.78 31.08,18.53 42.61,31.48" /><path
         id="path364"
         style="fill:#f03a1f;fill-opacity:1;fill-rule:nonzero;stroke:none"
         d="m 1143.67,4369.44 c -53.38,50.53 -87.59,115 -103.36,186.34 13.94,120.19 71.3,245.52 170.04,349.82 205.43,216.97 511.64,260.61 683.94,97.48 53.37,-50.53 87.59,-115 103.36,-186.34 -13.94,-120.19 -71.3,-245.53 -170.04,-349.82 -205.43,-216.97 -511.64,-260.62 -683.94,-97.48" /><path
         id="path366"
         style="fill:#ffffff;fill-opacity:1;fill-rule:nonzero;stroke:none"
         d="m 1339.69,3918.13 h -117.23 c -39.22,0 -74.03,25.09 -86.43,62.29 l -3.03,9.08 c -13.46,40.39 -53.1,66.07 -95.47,61.85 l -8.02,-0.8 c -46.373,-4.62 -88.756,26.5 -98.24,72.12 v 0 c -10.18,49.01 -58,80.63 -107.082,70.8 l -0.227,-0.05 c -45.91,-9.19 -91.309,17.92 -105,62.69 l -32.492,106.21 c 0,0 322.161,76.55 467.431,-68.72 145.27,-145.27 185.79,-375.47 185.79,-375.47" /><path
         id="path368"
         style="fill:#f8d1ad;fill-opacity:1;fill-rule:nonzero;stroke:none"
         d="m 892.602,4229.71 c 0,0 69.406,73.1 142.068,101.94 l 56.17,-24.94 c 0,0 -128.836,-36.44 -198.238,-77" /><path
         id="path370"
         style="fill:#f8d1ad;fill-opacity:1;fill-rule:nonzero;stroke:none"
         d="m 1144.34,4053.82 c 0,0 59.19,81.58 74.28,158.29 l -34.78,50.68 c 0,0 -12.29,-133.33 -39.5,-208.97" /><path
         id="path372"
         style="fill:#ffffff;fill-opacity:1;fill-rule:nonzero;stroke:none"
         d="m 1700.25,5074.45 c -69.62,69.62 -182.5,69.62 -252.12,0 -69.62,-69.61 -69.62,-182.5 0,-252.11 69.62,-69.62 182.5,-69.62 252.12,0 69.62,69.61 69.62,182.5 0,252.11" /><path
         id="path374"
         style="fill:#6b1517;fill-opacity:1;fill-rule:nonzero;stroke:none"
         d="m 1640.41,5014.61 c -36.57,36.57 -95.86,36.57 -132.43,0 -36.57,-36.57 -36.57,-95.86 0,-132.43 36.57,-36.57 95.86,-36.57 132.43,0 36.57,36.57 36.57,95.86 0,132.43" /><path
         id="path376"
         style="fill:#a91c24;fill-opacity:1;fill-rule:nonzero;stroke:none"
         d="m 1402.01,4671.77 c -88.84,84.1 -140.15,197.23 -144.5,318.53 -1.6,44.55 3.34,88.2 14.15,129.99 26.25,21.1 53.5,39.83 81.46,56.02 -27.17,-56.43 -40.55,-119.11 -38.22,-183.96 3.79,-106.15 48.75,-205.2 126.58,-278.88 77.84,-73.69 179.18,-113.17 285.38,-111.16 89.54,1.69 173.37,33.15 240.77,88.62 -12.07,-33.17 -27.43,-66.04 -45.92,-98.07 -59.28,-29.87 -125,-46.67 -193.77,-47.97 -121.34,-2.29 -237.1,42.77 -325.93,126.88" /><path
         id="path378"
         style="fill:#f03a1f;fill-opacity:1;fill-rule:nonzero;stroke:none"
         d="m 691.781,4338.84 c -40.015,-2.52 -51.027,53.91 -12.933,66.42 146.621,48.13 347.572,75.36 519.632,-39.35 159.65,-106.44 198.18,-284.26 197.44,-433.45 -0.2,-40.49 -58.84,-46.5 -67.35,-6.92 -28.02,130.3 -82.99,275.14 -190.85,341.91 -118.43,73.31 -301.845,80.44 -445.939,71.39" /><path
         id="path380"
         style="fill:#ffffff;fill-opacity:1;fill-rule:nonzero;stroke:none"
         d="m 2298.18,4499.43 c 28.91,32.46 40.34,78.8 28.88,127.12 -18.01,76.03 -93.15,151.01 -220.44,147.08 -163.74,-5.06 -213.44,160.49 -215.47,167.55 -5.06,17.54 -23.38,27.73 -40.93,22.71 -17.57,-4.97 -27.77,-23.24 -22.8,-40.8 21.72,-76.94 108.45,-221.02 281.25,-215.69 89.94,2.78 142.12,-46.28 153.93,-96.11 6.91,-29.21 1.41,-66.37 -34.92,-83.24 -16.59,-7.72 -23.8,-27.43 -16.11,-44 7.71,-16.59 27.39,-23.8 44.01,-16.1 16.75,7.77 31.07,18.53 42.6,31.48" /><path
         id="path382"
         style="fill:#a91c24;fill-opacity:1;fill-rule:nonzero;stroke:none"
         d="m 1038.24,4740.01 c 6.8,37.95 17.94,76.16 33.21,113.86 10.35,-117.01 78.46,-251.29 194.43,-361.1 111.06,-105.14 241.97,-164.98 355.94,-173.3 -36.37,-16.33 -73.39,-28.62 -110.33,-36.76 -97.26,28.37 -197.27,85.23 -285.08,168.37 -91.93,87.05 -155.79,189.02 -188.17,288.93" /><path
         id="path384"
         style="fill:#a91c24;fill-opacity:1;fill-rule:nonzero;stroke:none"
         d="m 1198.44,4918.53 67.88,33.05 14.51,-29.78 -68.42,-33.33 -31.7,-64.38 60.11,-32.89 81.02,28.07 10.84,-31.31 -77.98,-27.02 -9.46,-92 -32.96,3.4 9.42,91.55 -84.72,46.37 39.38,79.99 -62.38,17.23 3.38,37.42 c 11.63,19.09 24.42,37.84 38.33,56.15 l -6.22,-69 48.97,-13.52" /><path
         id="path386"
         style="fill:#a91c24;fill-opacity:1;fill-rule:nonzero;stroke:none"
         d="m 1687.99,4401.75 -66.16,49.61 19.89,26.5 43.16,-32.37 45.77,45.78 3.08,76.89 33.1,-1.32 -3.07,-76.79 40.53,-46.49 c -8.03,-7.7 -16.2,-15.12 -24.48,-22.32 l -33.7,38.64 -58.12,-58.13" /><path
         id="path388"
         style="fill:#f03a1f;fill-opacity:1;fill-rule:nonzero;stroke:none"
         d="m 1589.57,4380.62 c 15.46,-32.15 63.88,-21.15 62.97,14.52 -1.91,74.43 -36.58,267.12 -99.51,315.15 -99.87,76.22 -668.225,-43.89 -658.362,-117.04 9.867,-73.14 444.102,33.14 539.422,40.01 61.62,4.44 124.4,-188.01 155.48,-252.64" /><path
         id="path390"
         style="fill:#ffffff;fill-opacity:1;fill-rule:nonzero;stroke:none"
         d="m 987.977,4567.96 c 0,0 245.413,-226.92 599.443,-182.84 0,0 -70.16,242.05 -108.61,267.49 -38.44,25.43 -490.833,-84.65 -490.833,-84.65" /><path
         id="path392"
         style="fill:#ffffff;fill-opacity:1;fill-rule:nonzero;stroke:none"
         d="m 1756.32,5161.55 -0.01,92.85 c 0,37.05 31,66.86 68.48,64.9 35.15,-1.84 61.5,-33.38 61.5,-68.57 v -74.69 c 0,-2.06 0.01,-4.23 0.01,-6.43 2.21,-0.01 4.38,-0.01 6.44,-0.01 h 74.69 c 35.19,-0.01 66.73,-26.36 68.57,-61.5 1.96,-37.48 -27.85,-68.48 -64.9,-68.48 h -92.85 c -32.34,0 -63.35,12.84 -86.22,35.71 v 0 c -22.87,22.87 -35.71,53.89 -35.71,86.22" /><path
         id="path394"
         style="fill:#a91c24;fill-opacity:1;fill-rule:nonzero;stroke:none"
         d="m 1065.77,4680.7 c 168.02,69.96 392.87,114.63 498.76,62.59 124.28,-61.08 88.01,-348.15 88.01,-348.15 -1.91,74.43 -36.58,267.12 -99.51,315.15 -63.23,48.25 -314.08,17.8 -487.26,-29.59" /><path
         id="path396"
         style="fill:#8d1b21;fill-opacity:1;fill-rule:nonzero;stroke:none"
         d="m 1587.84,5011.53 c -14.02,14.02 -42.58,8.2 -63.78,-13 -21.21,-21.2 -27.03,-49.76 -13.01,-63.78 14.02,-14.02 42.58,-8.2 63.78,13.01 21.21,21.2 27.03,49.76 13.01,63.77" /><path
         id="path398"
         style="fill:#f8d1ad;fill-opacity:1;fill-rule:nonzero;stroke:none"
         d="m 1951.18,5129.05 h -45.57 c -15.88,0 -31.1,6.31 -42.32,17.53 v 0 c -11.23,11.23 -17.54,26.45 -17.54,42.33 v 45.57 c 0,18.19 15.22,32.82 33.62,31.86 1.93,-0.1 3.57,-0.99 5.39,-1.44 0.94,-4.63 1.53,-9.35 1.53,-14.17 v -74.69 c 0,-2.06 0.01,-4.23 0.01,-6.43 2.21,-0.01 4.38,-0.01 6.44,-0.01 h 74.69 c 4.82,0 9.55,-0.6 14.17,-1.54 0.45,-1.82 1.33,-3.45 1.44,-5.39 0.96,-18.4 -13.67,-33.62 -31.86,-33.62" /><path
         id="path400"
         style="fill:#f8d1ad;fill-opacity:1;fill-rule:nonzero;stroke:none"
         d="m 1587.42,4385.12 c 0,0 -70.16,242.05 -108.61,267.49 -38.44,25.43 -490.833,-84.65 -490.833,-84.65 0,0 451.873,74.28 472.203,56.88 20.32,-17.41 127.24,-239.72 127.24,-239.72" /><path
         id="path402"
         style="fill:#f8d1ad;fill-opacity:1;fill-rule:nonzero;stroke:none"
         d="m 1484.14,4589.29 c 0,0 -50,-133.61 -60.05,-174.93 0,0 64.23,86.31 91.06,154.71 l -31.01,20.22" /><path
         id="path404"
         style="fill:#f8d1ad;fill-opacity:1;fill-rule:nonzero;stroke:none"
         d="m 1386.09,4631.38 c 0,0 -96.64,-137.03 -120.9,-171.95 0,0 125.43,118.18 175.1,172.32 l -54.2,-0.37" /><path
         id="path406"
         style="fill:#f8d1ad;fill-opacity:1;fill-rule:nonzero;stroke:none"
         d="m 1248.21,4614.59 -121.68,-87.85 c 0,0 101.92,36.86 194.11,93.91 l -72.43,-6.06" /><path
         id="path408"
         style="fill:#ffffff;fill-opacity:1;fill-rule:nonzero;stroke:none"
         d="m 4711.45,4229.31 c 0,0 -60.34,-177.37 -104.52,-158.06 -44.17,19.31 -8.94,104.52 -8.94,104.52 0,0 -107.28,-129.28 -149.76,-91.48 -42.47,37.81 65.84,137.96 65.84,137.96 0,0 -128.85,-70.26 -162.47,-33.67 -33.62,36.58 111.44,133.13 111.44,133.13 0,0 -106.45,-8.2 -120.68,27.52 -14.23,35.72 176.66,88.17 176.66,88.17 l 192.43,-208.09" /><path
         id="path410"
         style="fill:#f8d1ad;fill-opacity:1;fill-rule:nonzero;stroke:none"
         d="m 4711.45,4229.31 c 0,0 -11.57,-34 -28.28,-70.61 -55.49,30.3 -108.7,70.07 -156.69,119.2 -39.42,40.36 -72.51,84.07 -99.13,129.55 45.33,17.19 91.67,29.95 91.67,29.95 l 192.43,-208.09" /><path
         id="path412"
         style="fill:#ffffff;fill-opacity:1;fill-rule:nonzero;stroke:none"
         d="m 5274.06,4804.45 c 0,0 248.22,86.23 208.32,161.27 -35.47,66.69 -151.15,5.39 -151.15,5.39 0,0 144.64,230.16 63.96,284.81 -80.69,54.66 -220.62,-148.96 -220.62,-148.96 0,0 14.51,119.51 -45.11,129.03 -59.62,9.52 -107.76,-241.64 -107.76,-241.64 l 252.36,-189.9" /><path
         id="path414"
         style="fill:#f36437;fill-opacity:1;fill-rule:nonzero;stroke:none"
         d="m 5275.31,4238.49 c 163.14,172.3 119.49,478.51 -97.48,683.93 -216.97,205.43 -525.11,232.29 -688.24,59.98 -163.13,-172.3 -119.49,-478.51 97.48,-683.93 216.97,-205.43 525.11,-232.29 688.24,-59.98" /><path
         id="path416"
         style="fill:#f8d1ad;fill-opacity:1;fill-rule:nonzero;stroke:none"
         d="m 4687.98,3933.3 c 32.46,-28.91 78.81,-40.33 127.13,-28.87 76.03,18 151,93.15 147.07,220.44 -5.05,163.74 160.5,213.43 167.56,215.47 17.54,5.05 27.72,23.37 22.7,40.92 -4.97,17.57 -23.23,27.77 -40.8,22.8 -76.93,-21.72 -221.02,-108.44 -215.68,-281.24 2.77,-89.95 -46.29,-142.12 -96.13,-153.93 -29.2,-6.92 -66.36,-1.42 -83.23,34.91 -7.71,16.59 -27.42,23.81 -43.99,16.11 -16.59,-7.7 -23.81,-27.39 -16.11,-44 7.78,-16.75 18.53,-31.08 31.48,-42.61" /><path
         id="path418"
         style="fill:#f03a1f;fill-opacity:1;fill-rule:nonzero;stroke:none"
         d="m 4489.59,4982.4 c 50.54,53.38 115,87.6 186.34,103.36 120.19,-13.94 245.53,-71.3 349.81,-170.04 216.97,-205.43 260.63,-511.64 97.49,-683.94 -50.53,-53.37 -115,-87.58 -186.34,-103.35 -120.19,13.94 -245.52,71.29 -349.82,170.04 -216.97,205.42 -260.61,511.63 -97.48,683.93" /><path
         id="path420"
         style="fill:#ffffff;fill-opacity:1;fill-rule:nonzero;stroke:none"
         d="m 4038.27,4786.38 v 117.23 c 0,39.22 25.1,74.04 62.3,86.44 l 9.09,3.02 c 40.38,13.47 66.06,53.1 61.84,95.47 l -0.8,8.03 c -4.63,46.37 26.5,88.75 72.12,98.23 v 0 c 49.02,10.19 80.63,58 70.8,107.08 l -0.05,0.24 c -9.19,45.9 17.91,91.3 62.69,105 l 106.21,32.48 c 0,0 76.54,-322.16 -68.72,-467.43 -145.27,-145.27 -375.48,-185.79 -375.48,-185.79" /><path
         id="path422"
         style="fill:#f8d1ad;fill-opacity:1;fill-rule:nonzero;stroke:none"
         d="m 4349.86,5233.47 c 0,0 73.1,-69.41 101.95,-142.06 l -24.95,-56.18 c 0,0 -36.44,128.84 -77,198.24" /><path
         id="path424"
         style="fill:#f8d1ad;fill-opacity:1;fill-rule:nonzero;stroke:none"
         d="m 4173.97,4981.73 c 0,0 81.59,-59.18 158.29,-74.28 l 50.68,34.78 c 0,0 -133.33,12.3 -208.97,39.5" /><path
         id="path426"
         style="fill:#ffffff;fill-opacity:1;fill-rule:nonzero;stroke:none"
         d="m 5194.6,4425.83 c 69.63,69.62 69.63,182.49 0,252.11 -69.62,69.62 -182.49,69.62 -252.11,0 -69.63,-69.62 -69.63,-182.49 0,-252.11 69.62,-69.62 182.49,-69.62 252.11,0" /><path
         id="path428"
         style="fill:#6b1517;fill-opacity:1;fill-rule:nonzero;stroke:none"
         d="m 5134.76,4485.67 c 36.57,36.57 36.57,95.86 0,132.43 -36.57,36.56 -95.86,36.56 -132.43,0 -36.57,-36.58 -36.57,-95.87 0,-132.43 36.57,-36.57 95.85,-36.57 132.43,0" /><path
         id="path430"
         style="fill:#a91c24;fill-opacity:1;fill-rule:nonzero;stroke:none"
         d="m 4791.92,4724.06 c 84.11,88.84 197.23,140.16 318.53,144.51 44.55,1.59 88.2,-3.34 129.99,-14.16 21.09,-26.24 39.83,-53.5 56.02,-81.45 -56.42,27.16 -119.12,40.54 -183.97,38.22 -106.14,-3.8 -205.19,-48.76 -278.88,-126.59 -73.68,-77.84 -113.16,-179.18 -111.15,-285.37 1.68,-89.54 33.15,-173.37 88.62,-240.77 -33.18,12.06 -66.03,27.42 -98.07,45.91 -29.87,59.28 -46.67,125 -47.97,193.77 -2.29,121.35 42.77,237.11 126.88,325.93" /><path
         id="path432"
         style="fill:#f03a1f;fill-opacity:1;fill-rule:nonzero;stroke:none"
         d="m 4458.98,5434.29 c -2.51,40.01 53.92,51.03 66.43,12.94 48.13,-146.62 75.36,-347.58 -39.35,-519.63 -106.44,-159.66 -284.25,-198.18 -433.45,-197.45 -40.49,0.2 -46.5,58.84 -6.92,67.35 130.3,28.02 275.14,82.99 341.91,190.85 73.32,118.43 80.44,301.85 71.38,445.94" /><path
         id="path434"
         style="fill:#ffffff;fill-opacity:1;fill-rule:nonzero;stroke:none"
         d="m 4619.58,3827.89 c 32.46,-28.91 78.81,-40.33 127.12,-28.88 76.03,18.01 151.01,93.16 147.08,220.45 -5.06,163.74 160.5,213.43 167.55,215.46 17.54,5.06 27.73,23.38 22.71,40.93 -4.98,17.57 -23.24,27.77 -40.8,22.8 -76.94,-21.72 -221.02,-108.44 -215.69,-281.24 2.78,-89.95 -46.28,-142.13 -96.11,-153.93 -29.21,-6.92 -66.37,-1.42 -83.25,34.91 -7.7,16.59 -27.42,23.8 -43.99,16.11 -16.58,-7.7 -23.8,-27.39 -16.1,-44 7.78,-16.75 18.53,-31.08 31.48,-42.61" /><path
         id="path436"
         style="fill:#a91c24;fill-opacity:1;fill-rule:nonzero;stroke:none"
         d="m 4860.17,5087.83 c 37.94,-6.79 76.16,-17.94 113.84,-33.21 -117.01,-10.34 -251.28,-78.46 -361.09,-194.43 -105.15,-111.05 -164.98,-241.97 -173.29,-355.94 -16.35,36.38 -28.63,73.39 -36.77,110.33 28.37,97.26 85.24,197.28 168.37,285.08 87.04,91.93 189.02,155.79 288.94,188.17" /><path
         id="path438"
         style="fill:#a91c24;fill-opacity:1;fill-rule:nonzero;stroke:none"
         d="m 5038.67,4927.64 33.06,-67.89 -29.79,-14.5 -33.32,68.41 -64.38,31.71 -32.89,-60.11 28.06,-81.02 -31.3,-10.85 -27.02,77.98 -92.01,9.47 3.41,32.95 91.55,-9.42 46.36,84.72 80,-39.38 17.24,62.39 37.41,-3.39 c 19.09,-11.62 37.83,-24.42 56.15,-38.33 l -69,6.23 -13.53,-48.97" /><path
         id="path440"
         style="fill:#a91c24;fill-opacity:1;fill-rule:nonzero;stroke:none"
         d="m 4521.9,4438.09 49.61,66.15 26.51,-19.88 -32.39,-43.16 45.79,-45.78 76.89,-3.07 -1.33,-33.11 -76.77,3.08 -46.5,-40.54 c -7.7,8.03 -15.12,16.21 -22.32,24.49 l 38.64,33.69 -58.13,58.13" /><path
         id="path442"
         style="fill:#f03a1f;fill-opacity:1;fill-rule:nonzero;stroke:none"
         d="m 4500.76,4536.5 c -32.15,-15.46 -21.13,-63.88 14.53,-62.97 74.44,1.91 267.12,36.58 315.15,99.51 76.22,99.88 -43.89,668.23 -117.04,658.36 -73.15,-9.86 33.14,-444.1 40.01,-539.41 4.44,-61.63 -188.02,-124.41 -252.65,-155.49" /><path
         id="path444"
         style="fill:#ffffff;fill-opacity:1;fill-rule:nonzero;stroke:none"
         d="m 4688.11,5138.1 c 0,0 -226.92,-245.42 -182.84,-599.45 0,0 242.05,70.16 267.48,108.61 25.44,38.45 -84.64,490.84 -84.64,490.84" /><path
         id="path446"
         style="fill:#ffffff;fill-opacity:1;fill-rule:nonzero;stroke:none"
         d="m 5281.7,4369.76 h 92.85 c 37.05,0 66.87,-31 64.9,-68.48 -1.84,-35.15 -33.39,-61.5 -68.57,-61.5 h -74.69 c -2.06,0 -4.23,0 -6.43,-0.01 0,-2.21 -0.01,-4.37 -0.01,-6.43 v -74.69 c 0,-35.19 -26.36,-66.73 -61.51,-68.58 -37.47,-1.96 -68.47,27.86 -68.47,64.91 v 92.84 c 0,32.34 12.85,63.36 35.71,86.22 v 0 c 22.87,22.87 53.89,35.72 86.22,35.72" /><path
         id="path448"
         style="fill:#a91c24;fill-opacity:1;fill-rule:nonzero;stroke:none"
         d="m 4800.85,5060.3 c 69.96,-168.02 114.63,-392.86 62.59,-498.75 -61.08,-124.28 -348.15,-88.02 -348.15,-88.02 74.43,1.91 267.12,36.58 315.15,99.51 48.25,63.23 17.8,314.09 -29.59,487.26" /><path
         id="path450"
         style="fill:#8d1b21;fill-opacity:1;fill-rule:nonzero;stroke:none"
         d="m 5131.68,4538.23 c 14.02,14.03 8.2,42.58 -13,63.79 -21.21,21.2 -49.75,27.02 -63.78,13 -14.02,-14.02 -8.19,-42.57 13.01,-63.78 21.2,-21.2 49.76,-27.02 63.77,-13.01" /><path
         id="path452"
         style="fill:#f8d1ad;fill-opacity:1;fill-rule:nonzero;stroke:none"
         d="m 5249.2,4174.89 0.01,45.58 c 0,15.87 6.3,31.09 17.53,42.32 v 0 c 11.22,11.22 26.44,17.53 42.32,17.53 h 45.57 c 18.19,0 32.82,-15.22 31.86,-33.61 -0.1,-1.94 -0.99,-3.57 -1.44,-5.39 -4.62,-0.95 -9.35,-1.54 -14.17,-1.54 h -74.69 c -2.06,0 -4.23,0 -6.43,-0.01 0,-2.21 -0.01,-4.37 -0.01,-6.43 v -74.69 c 0,-4.83 -0.6,-9.55 -1.55,-14.17 -1.81,-0.46 -3.44,-1.34 -5.38,-1.45 -18.4,-0.96 -33.62,13.68 -33.62,31.86" /><path
         id="path454"
         style="fill:#f8d1ad;fill-opacity:1;fill-rule:nonzero;stroke:none"
         d="m 4505.27,4538.65 c 0,0 242.05,70.16 267.48,108.61 25.44,38.45 -84.64,490.84 -84.64,490.84 0,0 74.28,-451.88 56.87,-472.2 -17.4,-20.33 -239.71,-127.25 -239.71,-127.25" /><path
         id="path456"
         style="fill:#f8d1ad;fill-opacity:1;fill-rule:nonzero;stroke:none"
         d="m 4709.44,4641.93 c 0,0 -133.61,50.01 -174.93,60.06 0,0 86.31,-64.23 154.72,-91.07 l 20.21,31.01" /><path
         id="path458"
         style="fill:#f8d1ad;fill-opacity:1;fill-rule:nonzero;stroke:none"
         d="m 4751.52,4739.99 c 0,0 -137.02,96.63 -171.94,120.9 0,0 118.18,-125.43 172.32,-175.11 l -0.38,54.21" /><path
         id="path460"
         style="fill:#f8d1ad;fill-opacity:1;fill-rule:nonzero;stroke:none"
         d="m 4734.74,4877.87 -87.85,121.68 c 0,0 36.86,-101.93 93.91,-194.12 l -6.06,72.44" /><path
         id="path462"
         style="fill:#ffffff;fill-opacity:1;fill-rule:nonzero;stroke:none"
         d="m 1432.81,1051.69 c 0,0 -60.33,-177.362 -104.51,-158.061 -44.17,19.312 -8.95,104.531 -8.95,104.531 0,0 -107.27,-129.281 -149.75,-91.48 -42.48,37.8 65.83,137.96 65.83,137.96 0,0 -128.84,-70.261 -162.47,-33.68 -33.62,36.58 111.44,133.13 111.44,133.13 0,0 -106.44,-8.19 -120.67,27.53 -14.23,35.72 176.66,88.17 176.66,88.17 l 192.42,-208.1" /><path
         id="path464"
         style="fill:#f8d1ad;fill-opacity:1;fill-rule:nonzero;stroke:none"
         d="m 1432.81,1051.69 c 0,0 -11.57,-33.99 -28.27,-70.6 -55.5,30.29 -108.71,70.06 -156.69,119.19 -39.43,40.37 -72.51,84.08 -99.13,129.56 45.32,17.18 91.67,29.95 91.67,29.95 l 192.42,-208.1" /><path
         id="path466"
         style="fill:#ffffff;fill-opacity:1;fill-rule:nonzero;stroke:none"
         d="m 1995.42,1626.84 c 0,0 248.22,86.23 208.32,161.27 -35.46,66.69 -151.14,5.39 -151.14,5.39 0,0 144.64,230.15 63.95,284.8 -80.68,54.66 -220.62,-148.96 -220.62,-148.96 0,0 14.52,119.52 -45.1,129.04 -59.62,9.51 -107.77,-241.65 -107.77,-241.65 l 252.36,-189.89" /><path
         id="path468"
         style="fill:#f36437;fill-opacity:1;fill-rule:nonzero;stroke:none"
         d="m 1996.68,1060.87 c 163.13,172.31 119.49,478.51 -97.49,683.94 -216.96,205.43 -525.1,232.28 -688.23,59.98 -163.14,-172.3 -119.5,-478.51 97.48,-683.94 216.97,-205.428 525.1,-232.28 688.24,-59.98" /><path
         id="path470"
         style="fill:#f8d1ad;fill-opacity:1;fill-rule:nonzero;stroke:none"
         d="m 1409.35,755.68 c 32.46,-28.899 78.8,-40.328 127.12,-28.871 76.03,18.011 151.01,93.152 147.07,220.453 -5.05,163.738 160.5,213.418 167.56,215.458 17.54,5.05 27.73,23.37 22.71,40.92 -4.98,17.57 -23.24,27.78 -40.8,22.81 -76.94,-21.72 -221.03,-108.45 -215.69,-281.239 2.78,-89.949 -46.28,-142.121 -96.12,-153.941 -29.2,-6.911 -66.37,-1.418 -83.24,34.921 -7.71,16.579 -27.42,23.801 -43.99,16.11 -16.59,-7.699 -23.8,-27.403 -16.1,-44 7.77,-16.762 18.53,-31.082 31.48,-42.621" /><path
         id="path472"
         style="fill:#f03a1f;fill-opacity:1;fill-rule:nonzero;stroke:none"
         d="m 1210.95,1804.79 c 50.54,53.38 115,87.59 186.34,103.36 120.19,-13.95 245.53,-71.3 349.82,-170.04 216.97,-205.43 260.62,-511.64 97.48,-683.94 -50.53,-53.38 -115,-87.6 -186.33,-103.361 -120.19,13.953 -245.53,71.301 -349.82,170.041 -216.98,205.43 -260.62,511.64 -97.49,683.94" /><path
         id="path474"
         style="fill:#ffffff;fill-opacity:1;fill-rule:nonzero;stroke:none"
         d="M 759.641,1608.76 V 1726 c 0,39.22 25.089,74.03 62.293,86.43 l 9.086,3.03 c 40.386,13.46 66.066,53.1 61.847,95.46 l -0.801,8.04 c -4.625,46.36 26.493,88.75 72.118,98.23 v 0 c 49.006,10.18 80.626,58 70.806,107.08 l -0.05,0.22 c -9.19,45.91 17.91,91.31 62.68,105.01 l 106.21,32.48 c 0,0 76.55,-322.15 -68.72,-467.43 C 989.844,1649.29 759.641,1608.76 759.641,1608.76" /><path
         id="path476"
         style="fill:#f8d1ad;fill-opacity:1;fill-rule:nonzero;stroke:none"
         d="m 1071.23,2055.85 c 0,0 73.09,-69.4 101.93,-142.06 l -24.94,-56.18 c 0,0 -36.43,128.85 -76.99,198.24" /><path
         id="path478"
         style="fill:#f8d1ad;fill-opacity:1;fill-rule:nonzero;stroke:none"
         d="m 895.336,1804.12 c 0,0 81.582,-59.2 158.284,-74.28 l 50.68,34.78 c 0,0 -133.327,12.3 -208.964,39.5" /><path
         id="path480"
         style="fill:#ffffff;fill-opacity:1;fill-rule:nonzero;stroke:none"
         d="m 1915.97,1248.21 c 69.62,69.62 69.62,182.49 0,252.11 -69.62,69.62 -182.5,69.62 -252.12,0 -69.62,-69.62 -69.62,-182.49 0,-252.11 69.62,-69.62 182.5,-69.62 252.12,0" /><path
         id="path482"
         style="fill:#6b1517;fill-opacity:1;fill-rule:nonzero;stroke:none"
         d="m 1856.12,1308.05 c 36.57,36.57 36.57,95.87 0,132.43 -36.56,36.57 -95.86,36.57 -132.42,0 -36.57,-36.57 -36.58,-95.86 0,-132.43 36.56,-36.57 95.85,-36.56 132.42,0" /><path
         id="path484"
         style="fill:#a91c24;fill-opacity:1;fill-rule:nonzero;stroke:none"
         d="m 1513.29,1546.45 c 84.1,88.83 197.22,140.15 318.53,144.5 44.54,1.6 88.19,-3.34 129.99,-14.16 21.09,-26.24 39.83,-53.5 56.02,-81.45 -56.43,27.16 -119.12,40.55 -183.97,38.23 -106.15,-3.8 -205.2,-48.76 -278.88,-126.6 -73.69,-77.83 -113.16,-179.18 -111.16,-285.38 1.69,-89.53 33.15,-173.37 88.63,-240.758 -33.18,12.066 -66.04,27.418 -98.08,45.908 -29.86,59.29 -46.67,125.01 -47.96,193.78 -2.29,121.35 42.76,237.1 126.88,325.93" /><path
         id="path486"
         style="fill:#f03a1f;fill-opacity:1;fill-rule:nonzero;stroke:none"
         d="m 1180.35,2256.67 c -2.51,40.02 53.92,51.03 66.42,12.94 48.13,-146.62 75.36,-347.57 -39.34,-519.63 -106.44,-159.66 -284.262,-198.18 -433.457,-197.44 -40.489,0.2 -46.496,58.84 -6.918,67.34 130.297,28.02 275.135,83 341.905,190.85 73.32,118.44 80.44,301.85 71.39,445.94" /><path
         id="path488"
         style="fill:#ffffff;fill-opacity:1;fill-rule:nonzero;stroke:none"
         d="m 1340.94,650.27 c 32.46,-28.899 78.81,-40.329 127.13,-28.872 76.03,18.012 151,93.153 147.07,220.454 -5.05,163.728 160.5,213.418 167.56,215.458 17.53,5.05 27.72,23.37 22.71,40.92 -4.98,17.57 -23.25,27.78 -40.81,22.81 -76.93,-21.72 -221.02,-108.45 -215.68,-281.239 2.77,-89.961 -46.29,-142.133 -96.12,-153.942 -29.21,-6.91 -66.37,-1.418 -83.24,34.922 -7.71,16.578 -27.42,23.801 -43.99,16.11 -16.59,-7.711 -23.81,-27.403 -16.11,-44 7.78,-16.762 18.53,-31.082 31.48,-42.621" /><path
         id="path490"
         style="fill:#a91c24;fill-opacity:1;fill-rule:nonzero;stroke:none"
         d="m 1581.53,1910.22 c 37.94,-6.8 76.16,-17.94 113.85,-33.22 -117.01,-10.34 -251.28,-78.45 -361.09,-194.42 -105.15,-111.06 -164.99,-241.97 -173.3,-355.94 -16.34,36.37 -28.63,73.39 -36.77,110.32 28.37,97.27 85.24,197.28 168.37,285.08 87.05,91.94 189.03,155.79 288.94,188.18" /><path
         id="path492"
         style="fill:#a91c24;fill-opacity:1;fill-rule:nonzero;stroke:none"
         d="m 1760.04,1750.02 33.06,-67.88 -29.79,-14.51 -33.32,68.42 -64.39,31.71 -32.89,-60.12 28.07,-81.02 -31.31,-10.84 -27.01,77.97 -92.01,9.47 3.4,32.95 91.56,-9.41 46.36,84.72 79.99,-39.38 17.24,62.38 37.41,-3.39 c 19.09,-11.63 37.84,-24.42 56.15,-38.33 l -69,6.24 -13.52,-48.98" /><path
         id="path494"
         style="fill:#a91c24;fill-opacity:1;fill-rule:nonzero;stroke:none"
         d="m 1243.27,1260.47 49.61,66.15 26.5,-19.88 -32.38,-43.15 45.78,-45.79 76.9,-3.06 -1.33,-33.12 -76.78,3.08 -46.5,-40.53 c -7.7,8.03 -15.11,16.2 -22.32,24.48 l 38.64,33.69 -58.12,58.13" /><path
         id="path496"
         style="fill:#f03a1f;fill-opacity:1;fill-rule:nonzero;stroke:none"
         d="m 1222.13,1358.89 c -32.15,-15.47 -21.14,-63.89 14.53,-62.97 74.43,1.9 267.12,36.58 315.14,99.51 76.22,99.86 -43.89,668.22 -117.03,658.36 -73.15,-9.86 33.14,-444.1 40.01,-539.41 4.44,-61.63 -188.02,-124.41 -252.65,-155.49" /><path
         id="path498"
         style="fill:#ffffff;fill-opacity:1;fill-rule:nonzero;stroke:none"
         d="m 1409.47,1960.48 c 0,0 -226.92,-245.41 -182.83,-599.44 0,0 242.05,70.16 267.48,108.61 25.44,38.45 -84.65,490.83 -84.65,490.83" /><path
         id="path500"
         style="fill:#ffffff;fill-opacity:1;fill-rule:nonzero;stroke:none"
         d="m 2003.07,1192.14 h 92.84 c 37.05,0.01 66.87,-31 64.91,-68.48 -1.85,-35.14 -33.39,-61.49 -68.58,-61.49 l -74.69,-0.01 c -2.06,0 -4.22,0 -6.43,0 0,-2.22 -0.01,-4.38 -0.01,-6.44 v -74.681 c 0,-35.199 -26.35,-66.738 -61.5,-68.578 -37.48,-1.961 -68.48,27.848 -68.48,64.891 v 92.858 c 0,32.34 12.85,63.35 35.72,86.22 v 0 c 22.86,22.87 53.88,35.71 86.22,35.71" /><path
         id="path502"
         style="fill:#a91c24;fill-opacity:1;fill-rule:nonzero;stroke:none"
         d="m 1522.22,1882.69 c 69.95,-168.03 114.63,-392.86 62.58,-498.75 -61.07,-124.29 -348.14,-88.02 -348.14,-88.02 74.42,1.9 267.12,36.58 315.14,99.51 48.25,63.22 17.8,314.08 -29.58,487.26" /><path
         id="path504"
         style="fill:#8d1b21;fill-opacity:1;fill-rule:nonzero;stroke:none"
         d="m 1853.05,1360.62 c 14.02,14.02 8.19,42.57 -13.01,63.79 -21.2,21.2 -49.76,27.02 -63.78,12.99 -14.01,-14.01 -8.19,-42.57 13.01,-63.78 21.2,-21.2 49.76,-27.02 63.78,-13" /><path
         id="path506"
         style="fill:#f8d1ad;fill-opacity:1;fill-rule:nonzero;stroke:none"
         d="m 1970.57,997.281 v 45.569 c 0,15.87 6.3,31.1 17.53,42.33 v 0 c 11.23,11.22 26.45,17.53 42.32,17.53 H 2076 c 18.18,0 32.82,-15.22 31.85,-33.62 -0.1,-1.94 -0.99,-3.57 -1.44,-5.39 -4.62,-0.94 -9.34,-1.53 -14.17,-1.53 l -74.69,-0.01 c -2.06,0 -4.22,0 -6.43,0 0,-2.22 -0.01,-4.38 -0.01,-6.44 v -74.681 c 0,-4.828 -0.59,-9.551 -1.54,-14.168 -1.82,-0.461 -3.45,-1.351 -5.39,-1.449 -18.39,-0.973 -33.61,13.668 -33.61,31.859" /><path
         id="path508"
         style="fill:#f8d1ad;fill-opacity:1;fill-rule:nonzero;stroke:none"
         d="m 1226.64,1361.04 c 0,0 242.05,70.16 267.48,108.61 25.44,38.45 -84.65,490.83 -84.65,490.83 0,0 74.28,-451.88 56.88,-472.2 -17.41,-20.32 -239.71,-127.24 -239.71,-127.24" /><path
         id="path510"
         style="fill:#f8d1ad;fill-opacity:1;fill-rule:nonzero;stroke:none"
         d="m 1430.81,1464.32 c 0,0 -133.62,50 -174.94,60.06 0,0 86.31,-64.24 154.72,-91.07 l 20.22,31.01" /><path
         id="path512"
         style="fill:#f8d1ad;fill-opacity:1;fill-rule:nonzero;stroke:none"
         d="m 1472.89,1562.37 c 0,0 -137.03,96.64 -171.95,120.9 0,0 118.19,-125.43 172.33,-175.1 l -0.38,54.2" /><path
         id="path514"
         style="fill:#f8d1ad;fill-opacity:1;fill-rule:nonzero;stroke:none"
         d="m 1456.1,1700.26 -87.84,121.67 c 0,0 36.85,-101.93 93.9,-194.12 l -6.06,72.45" /><path
         id="path516"
         style="fill:#ffffff;fill-opacity:1;fill-rule:nonzero;stroke:none"
         d="m 5304.35,1479.14 c 0,0 177.36,-60.34 158.05,-104.51 -19.3,-44.18 -104.52,-8.95 -104.52,-8.95 0,0 129.28,-107.28 91.48,-149.76 -37.81,-42.47 -137.96,65.84 -137.96,65.84 0,0 70.26,-128.85 33.68,-162.47 -36.58,-33.62 -133.14,111.44 -133.14,111.44 0,0 8.2,-106.44 -27.53,-120.68 -35.71,-14.23 -88.16,176.67 -88.16,176.67 l 208.1,192.42" /><path
         id="path518"
         style="fill:#f8d1ad;fill-opacity:1;fill-rule:nonzero;stroke:none"
         d="m 5304.35,1479.14 c 0,0 33.99,-11.57 70.6,-28.28 -30.29,-55.5 -70.07,-108.7 -119.2,-156.69 -40.36,-39.42 -84.07,-72.51 -129.55,-99.13 -17.19,45.32 -29.95,91.68 -29.95,91.68 l 208.1,192.42" /><path
         id="path520"
         style="fill:#ffffff;fill-opacity:1;fill-rule:nonzero;stroke:none"
         d="m 4729.2,2041.75 c 0,0 -86.23,248.21 -161.27,208.32 -66.69,-35.47 -5.39,-151.15 -5.39,-151.15 0,0 -230.16,144.64 -284.82,63.95 -54.64,-80.68 148.98,-220.61 148.98,-220.61 0,0 -119.52,14.51 -129.04,-45.11 -9.52,-59.62 241.65,-107.76 241.65,-107.76 l 189.89,252.36" /><path
         id="path522"
         style="fill:#f36437;fill-opacity:1;fill-rule:nonzero;stroke:none"
         d="m 5295.17,2043 c -172.31,163.13 -478.51,119.49 -683.94,-97.48 -205.43,-216.97 -232.28,-525.11 -59.98,-688.24 172.29,-163.14 478.51,-119.49 683.94,97.48 205.43,216.97 232.28,525.1 59.98,688.24" /><path
         id="path524"
         style="fill:#f8d1ad;fill-opacity:1;fill-rule:nonzero;stroke:none"
         d="m 5600.35,1455.67 c 28.91,32.47 40.33,78.8 28.88,127.12 -18.01,76.04 -93.16,151.01 -220.45,147.08 -163.74,-5.05 -213.43,160.49 -215.47,167.55 -5.05,17.54 -23.37,27.73 -40.92,22.71 -17.57,-4.97 -27.77,-23.23 -22.8,-40.8 21.72,-76.94 108.45,-221.02 281.24,-215.69 89.95,2.78 142.12,-46.28 153.94,-96.11 6.91,-29.21 1.41,-66.37 -34.93,-83.24 -16.58,-7.72 -23.8,-27.42 -16.1,-44 7.7,-16.59 27.39,-23.79 43.99,-16.1 16.76,7.77 31.09,18.53 42.62,31.48" /><path
         id="path526"
         style="fill:#f03a1f;fill-opacity:1;fill-rule:nonzero;stroke:none"
         d="m 4551.25,1257.28 c -53.38,50.53 -87.6,115 -103.36,186.33 13.95,120.2 71.3,245.53 170.04,349.83 205.43,216.96 511.64,260.61 683.94,97.48 53.37,-50.54 87.59,-115 103.35,-186.34 -13.94,-120.18 -71.29,-245.53 -170.03,-349.82 -205.43,-216.97 -511.65,-260.62 -683.94,-97.48" /><path
         id="path528"
         style="fill:#ffffff;fill-opacity:1;fill-rule:nonzero;stroke:none"
         d="m 4747.28,805.969 h -117.24 c -39.22,0 -74.03,25.09 -86.44,62.293 l -3.02,9.078 c -13.46,40.39 -53.1,66.07 -95.46,61.851 l -8.04,-0.8 c -46.37,-4.621 -88.75,26.488 -98.23,72.119 v 0 c -10.19,49.01 -58,80.62 -107.08,70.8 l -0.23,-0.05 c -45.91,-9.19 -91.31,17.92 -105.01,62.69 l -32.48,106.21 c 0,0 322.16,76.55 467.43,-68.72 145.27,-145.28 185.8,-375.471 185.8,-375.471" /><path
         id="path530"
         style="fill:#f8d1ad;fill-opacity:1;fill-rule:nonzero;stroke:none"
         d="m 4300.19,1117.55 c 0,0 69.4,73.1 142.06,101.94 l 56.18,-24.95 c 0,0 -128.85,-36.42 -198.24,-76.99" /><path
         id="path532"
         style="fill:#f8d1ad;fill-opacity:1;fill-rule:nonzero;stroke:none"
         d="m 4551.91,941.66 c 0,0 59.2,81.58 74.29,158.29 l -34.78,50.68 c 0,0 -12.3,-133.33 -39.51,-208.97" /><path
         id="path534"
         style="fill:#ffffff;fill-opacity:1;fill-rule:nonzero;stroke:none"
         d="m 5107.82,1962.3 c -69.62,69.62 -182.49,69.62 -252.11,0 -69.62,-69.63 -69.62,-182.5 0,-252.12 69.62,-69.62 182.49,-69.62 252.11,0 69.63,69.62 69.63,182.49 0,252.12" /><path
         id="path536"
         style="fill:#6b1517;fill-opacity:1;fill-rule:nonzero;stroke:none"
         d="m 5047.99,1902.44 c -36.57,36.57 -95.87,36.57 -132.43,0 -36.58,-36.56 -36.58,-95.85 0,-132.42 36.57,-36.57 95.86,-36.57 132.43,0 36.56,36.56 36.56,95.86 0,132.42" /><path
         id="path538"
         style="fill:#a91c24;fill-opacity:1;fill-rule:nonzero;stroke:none"
         d="m 4809.59,1559.61 c -88.84,84.1 -140.16,197.23 -144.5,318.53 -1.6,44.55 3.34,88.2 14.16,129.99 26.24,21.09 53.49,39.83 81.44,56.02 -27.15,-56.42 -40.54,-119.11 -38.22,-183.97 3.8,-106.15 48.76,-205.19 126.59,-278.87 77.83,-73.69 179.18,-113.16 285.38,-111.16 89.53,1.69 173.37,33.14 240.77,88.62 -12.08,-33.17 -27.43,-66.03 -45.91,-98.07 -59.29,-29.87 -125.01,-46.68 -193.78,-47.97 -121.35,-2.29 -237.1,42.77 -325.93,126.88" /><path
         id="path540"
         style="fill:#f03a1f;fill-opacity:1;fill-rule:nonzero;stroke:none"
         d="m 4099.37,1226.68 c -40.02,-2.52 -51.04,53.91 -12.94,66.42 146.62,48.12 347.56,75.36 519.62,-39.35 159.66,-106.43 198.19,-284.262 197.46,-433.461 -0.21,-40.469 -58.85,-46.488 -67.36,-6.91 -28.02,130.293 -83,275.141 -190.85,341.901 -118.43,73.32 -301.84,80.44 -445.93,71.4" /><path
         id="path542"
         style="fill:#ffffff;fill-opacity:1;fill-rule:nonzero;stroke:none"
         d="m 5705.76,1387.27 c 28.91,32.46 40.33,78.81 28.88,127.13 -18.01,76.02 -93.16,151 -220.45,147.07 -163.73,-5.06 -213.43,160.49 -215.46,167.54 -5.06,17.55 -23.38,27.74 -40.93,22.72 -17.57,-4.97 -27.77,-23.24 -22.8,-40.8 21.72,-76.94 108.45,-221.03 281.24,-215.68 89.95,2.77 142.13,-46.29 153.94,-96.13 6.91,-29.2 1.41,-66.36 -34.93,-83.23 -16.58,-7.71 -23.79,-27.43 -16.1,-44 7.71,-16.59 27.39,-23.8 44,-16.1 16.76,7.78 31.08,18.53 42.61,31.48" /><path
         id="path544"
         style="fill:#a91c24;fill-opacity:1;fill-rule:nonzero;stroke:none"
         d="m 4445.82,1627.85 c 6.8,37.94 17.94,76.16 33.21,113.86 10.35,-117.02 78.46,-251.29 194.43,-361.1 111.05,-105.14 241.97,-164.98 355.93,-173.29 -36.36,-16.34 -73.37,-28.64 -110.32,-36.77 -97.26,28.37 -197.27,85.23 -285.08,168.37 -91.93,87.04 -155.79,189.02 -188.17,288.93" /><path
         id="path546"
         style="fill:#a91c24;fill-opacity:1;fill-rule:nonzero;stroke:none"
         d="m 4606.02,1806.36 67.88,33.06 14.51,-29.79 -68.42,-33.32 -31.71,-64.38 60.12,-32.9 81.01,28.07 10.84,-31.31 -77.96,-27.01 -9.48,-92 -32.95,3.4 9.42,91.55 -84.72,46.37 39.38,79.99 -62.39,17.23 3.39,37.42 c 11.63,19.09 24.43,37.83 38.33,56.15 l -6.23,-69 48.98,-13.53" /><path
         id="path548"
         style="fill:#a91c24;fill-opacity:1;fill-rule:nonzero;stroke:none"
         d="m 5095.57,1289.59 -66.16,49.61 19.89,26.5 43.15,-32.37 45.78,45.77 3.07,76.9 33.11,-1.32 -3.07,-76.79 40.53,-46.49 c -8.03,-7.71 -16.21,-15.12 -24.49,-22.33 l -33.69,38.65 -58.12,-58.13" /><path
         id="path550"
         style="fill:#f03a1f;fill-opacity:1;fill-rule:nonzero;stroke:none"
         d="m 4997.15,1268.46 c 15.47,-32.15 63.89,-21.14 62.97,14.52 -1.91,74.43 -36.58,267.12 -99.51,315.15 -99.87,76.22 -668.23,-43.89 -658.36,-117.04 9.86,-73.15 444.1,33.14 539.41,40.01 61.63,4.44 124.4,-188.01 155.49,-252.64" /><path
         id="path552"
         style="fill:#ffffff;fill-opacity:1;fill-rule:nonzero;stroke:none"
         d="m 4395.56,1455.8 c 0,0 245.41,-226.92 599.44,-182.84 0,0 -70.17,242.05 -108.61,267.48 -38.45,25.44 -490.83,-84.64 -490.83,-84.64" /><path
         id="path554"
         style="fill:#ffffff;fill-opacity:1;fill-rule:nonzero;stroke:none"
         d="m 5163.9,2049.4 v 92.84 c -0.01,37.05 30.99,66.86 68.47,64.9 35.15,-1.84 61.5,-33.38 61.5,-68.57 l 0.01,-74.69 c 0,-2.06 0,-4.23 0,-6.44 2.2,0 4.37,-0.01 6.43,-0.01 H 5375 c 35.2,0 66.74,-26.35 68.57,-61.49 1.97,-37.48 -27.85,-68.49 -64.89,-68.49 h -92.85 c -32.34,0 -63.35,12.85 -86.22,35.72 v 0 c -22.87,22.87 -35.71,53.88 -35.71,86.23" /><path
         id="path556"
         style="fill:#a91c24;fill-opacity:1;fill-rule:nonzero;stroke:none"
         d="m 4473.35,1568.54 c 168.03,69.96 392.86,114.64 498.75,62.58 124.29,-61.07 88.02,-348.14 88.02,-348.14 -1.91,74.43 -36.58,267.12 -99.51,315.15 -63.23,48.25 -314.09,17.8 -487.26,-29.59" /><path
         id="path558"
         style="fill:#8d1b21;fill-opacity:1;fill-rule:nonzero;stroke:none"
         d="m 4995.42,1899.37 c -14.02,14.02 -42.58,8.2 -63.79,-13 -21.2,-21.2 -27.02,-49.76 -13,-63.78 14.02,-14.01 42.58,-8.19 63.78,13.01 21.2,21.2 27.02,49.75 13.01,63.77" /><path
         id="path560"
         style="fill:#f8d1ad;fill-opacity:1;fill-rule:nonzero;stroke:none"
         d="m 5358.76,2016.9 h -45.58 c -15.87,0 -31.09,6.29 -42.32,17.53 v 0 c -11.22,11.22 -17.53,26.44 -17.53,42.32 v 45.57 c 0,18.19 15.21,32.82 33.61,31.86 1.95,-0.11 3.58,-1 5.39,-1.44 0.95,-4.62 1.54,-9.35 1.54,-14.17 l 0.01,-74.69 c 0,-2.06 0,-4.23 0,-6.44 2.2,0 4.37,-0.01 6.43,-0.01 H 5375 c 4.82,0 9.55,-0.59 14.17,-1.54 0.46,-1.81 1.35,-3.45 1.45,-5.38 0.96,-18.4 -13.68,-33.61 -31.86,-33.61" /><path
         id="path562"
         style="fill:#f8d1ad;fill-opacity:1;fill-rule:nonzero;stroke:none"
         d="m 4995,1272.96 c 0,0 -70.17,242.05 -108.61,267.48 -38.45,25.44 -490.83,-84.64 -490.83,-84.64 0,0 451.87,74.28 472.19,56.88 20.33,-17.42 127.25,-239.72 127.25,-239.72" /><path
         id="path564"
         style="fill:#f8d1ad;fill-opacity:1;fill-rule:nonzero;stroke:none"
         d="m 4891.72,1477.13 c 0,0 -50,-133.61 -60.06,-174.93 0,0 64.24,86.31 91.06,154.72 l -31,20.21" /><path
         id="path566"
         style="fill:#f8d1ad;fill-opacity:1;fill-rule:nonzero;stroke:none"
         d="m 4793.66,1519.21 c 0,0 -96.63,-137.02 -120.9,-171.94 0,0 125.43,118.18 175.11,172.32 l -54.21,-0.38" /><path
         id="path568"
         style="fill:#f8d1ad;fill-opacity:1;fill-rule:nonzero;stroke:none"
         d="m 4655.78,1502.42 -121.67,-87.84 c 0,0 101.93,36.86 194.11,93.91 l -72.44,-6.07" /></g></g></svg>